<svg xmlns="http://www.w3.org/2000/svg"  viewBox="0 0 360.9 278.3" shape-rendering="auto">

<defs>
  <style>
    #cat {
      stroke-dasharray: 1800;
      stroke-dashoffset: 0;
      animation: dash 4s linear forwards;
    }
    @keyframes dash {
      from {stroke-dashoffset: 1800;}
      to {stroke-dashoffset: 0;}
    }
  </style>
</defs>

  <path id="cat" d="M337 8.2c-3.8-11.8-19-10-19 9.7-1 37 42 69.8 2 97-12 7.3-19.5 12.8-31.7 3.6-14-5.2-31.8-33.8-127.7-24.3-34 1-58 6.6-81.2 13-3.3 1.5-5.2-2.5-5.3-2.8L77 86l.4-8.4-2.3-.3-19.4 8.5C52 84.8 43 83 39.3 83c-3.8 0-13 1.2-16.6 2.3L1.3 75.8S-1 110 5 126.5c4.8 8.6 12.6 14 22.6 17.6 5.2 21.6 8 29 25.6 44.3 7.8 6.4 16 5.8 13 17.2-2.2 10.6-3 17-10.4 33.2-8 11.7-16 17.3-19.5 18-11 2.4-12 5.2-10.5 10 1.6 4.5 9 5.7 19.7 3.4 7.5-1.5 13.6-4.8 16-8.4 9-7 20.7-31 32.6-44.6 2.2 0 1.3 32 3.2 32.6-1.8 3.2-14.2 9.2-14.2 13.6 0 9.4 7.7 5.2 13.4 5.2 5.6 0 20-5.8 20-15 1.7-11.7 3.5-18.5 4-31.3-.3-14.7 9.5-20 19.8-23.7 13-5 42.3-2.3 59 5 15 26.8 50.4 39.6 20.8 55.4-6.5 1.6-18.5 4.3-18.7 11.2.7 7.2 16.6 8.3 20.4 7 4 0 12.7-2.5 13.3-2.7 12.7-8.6 13.6-9 16.8-12 2.6-12 1.4-38.4 1.5-40-1.2-17.4 9.6 8 10.2 17.7 0 0 1.5 7-10.4 12 0 7.5-2.8 11 1.6 11 2 0 7.8 3.8 18.6.5 14.3-5.2 20.2-21.8 20.7-31-2-13.8-12.2-24.5-14.3-38.6-3.4-15 11.4-32.7 10.8-45.2 26-2 56.8-18 64.5-33.3 0 0 0-.2.2-.3 3.3-7.3 5-16.3 4.7-27.4v-1c0-.3 0-.6-.2-1 0-2.2-.3-4.5-.6-6.8v-1c-.2 0-.2-.2-.2-.3-2.3-14-16.5-38.7-22-69.5z" opacity="1" fill="none" stroke="#2C3E50" stroke-width="1.8" stroke-linecap="square" stroke-linejoin="bevel" stroke-miterlimit="7.6"/>
</svg>
