<svg xmlns="http://www.w3.org/2000/svg" viewBox="0 0 283.1 141.9">
  <path fill="none" stroke="#000" d="M270.3 9.6s2-3.4 1-4.7c-.8-1.4-19.7 1-20 1.6-.5.6-3.5-4-9.8-4.7-6.4-.7-21.2 2.3-22 2.3-1 0-15.2-1.5-22.5-.2-5.7 1-11 3.7-16.2 6-13.8 6.2-25.8 11.8-40.2 21.2-14.4 9.4-24.3 23.7-31.8 38.6-6.3 12.5-6.8 37-10.2 40.7-3.4 3.6-1.5 7.2-27.8 11.2-26.3 4-28.3-14.5-43.4-13.8-9.6.4-30-.5-26.5 11.2 3.3 11.6 16.2-3 23.8 4 7.7 7 18.2 13 26 16.3 13.8 5.5 55.2-2.5 49.7-9-1.6-2 15.5 4.8 27.3 5.2 7.7 1 14 2.6 21 2.5 4.7 0 12 .7 14-2 2-2.8 18.2 0 22.5-4.3 5-5.2-3.6-8.2-3.6-8.2 0 .3 10.7-12 11-27.3.3-13.5 14 7.6 16 27 .6 4.6 2.2 12.3 7 13.7 5.4 1.5 14.6 4.4 18-.2 2-2.4 2-6 .8-8.7-2.2-5-10-.7-12.5-10.2-2.5-9.6-4.7-30.2-3.6-30.2 0 0 16.7-8.5 22.2-7.6 5.5.8 10 2.6 15 2.3 3.6-.2 10 .8 10.5-2.8 1-8.5-4.6-9.8-22.8-11.8-12.8-1.5-21.3 4-22.5 4 0 0 3.8-14 6-14.7 5-1 7.3 6.7 11.8 8 3.7 1 10.8.2 11.4-.4.6-.7 7.2.3 6.7-3.5-.4-3.8 6-9 7.2-11.7 1.2-2.7 2.3-21.8 0-25 4-5 23.6-17.7 6.3-15.2z"/>
</svg>
