<svg xmlns="http://www.w3.org/2000/svg" viewBox="0 0 368.886 262.747" shape-rendering="auto">
  <!-- <defs>
    <style>

    </style>
  </defs> -->


  <path id="draw" d="M303.006 50.1534c.8326-.6887.6637-2.0562-.3765-3.049-1.04-.9926-2.5635-1.24-3.396-.5514-.8322.6886-.6632 2.0565.377 3.049 1.04.9928 2.5633 1.24 3.3956.5515zm6.3125-1.953c-.0702-.012-.137-.0227-.1847-.04-1.0103-.3627-2.7286-.354-4.2474.867l-.058.0476c-1.476 1.221-1.6433 2.6977-1.3075 3.6728.0113.0334.0146.0863.018.1423.004.066.009.1325.022.198.139.6858.487 1.3.98 1.7285.523.4554 1.1472.652 1.757.5545.2462-.0396.459-.133.6333-.2772.3597-.2976.5004-.75.6636-1.2743.1033-.3336.2103-.678.3812-1.011.0216-.035.135-.1547.344-.3277.2486-.2057.4477-.3337.4982-.3536.3834-.1182.7686-.1758 1.141-.2318.571-.0855 1.11-.1664 1.4726-.4663.1557-.1285.2682-.29.3353-.4793.3697-1.0456-.62-2.2565-2.2057-2.6993-.0796-.0222-.1616-.0365-.243-.0498zm-3.1024-.7025c.832-.6884.6634-2.056-.3767-3.049-1.04-.9925-2.5637-1.24-3.3958-.5515-.8325.6887-.6634 2.0565.3767 3.0492 1.04.9927 2.5633 1.24 3.396.5512zm1.5106-2.9754c-.6672.552-.545 1.5988.2773 2.3837.822.7846 1.9887.9673 2.6556.4156.667-.5518.5454-1.599-.2767-2.3838-.8225-.785-1.989-.9675-2.6564-.4156zm-5.387 7.0696c-.8224-.785-1.989-.9675-2.656-.4158-.667.5518-.5453 1.599.277 2.3838.822.7846 1.989.9672 2.656.4155.667-.5518.545-1.599-.277-2.3835zm-8.923-21.5133c.5852-.908.0107-2.1607-1.281-2.7925-1.2914-.6317-2.8184-.407-3.4037.501-.585.908-.0105 2.1608 1.281 2.7925 1.2917.632 2.8183.407 3.4035-.501zm5.4263-3.77c-.0706.0097-.1374.0196-.188.0176-1.0728-.0404-2.708.4873-3.7865 2.1106l-.041.0628c-1.0377 1.6102-.7508 3.0683-.136 3.8962.021.0285.0402.078.0604.1302.0233.0617.048.1235.0807.182.34.6116.8573 1.0917 1.4566 1.3513.636.276 1.2907.2746 1.8424-.0027.2227-.112.3973-.2653.52-.4556.253-.3924.2502-.8663.2472-1.4153-.002-.349-.004-.71.0577-1.079.01-.0397.0818-.188.2288-.416.1748-.2714.326-.4536.368-.4878.3297-.2285.6795-.4 1.0174-.5658.5184-.2542 1.008-.4943 1.2627-.8898.1094-.1697.168-.3574.1745-.5584.0363-1.1084-1.273-1.9634-2.9185-1.906-.0826.0028-.165.014-.2467.026zm-3.1697.2682c.585-.9077.0107-2.1604-1.281-2.7922-1.2914-.6316-2.8185-.4068-3.4035.501-.5855.9082-.0107 2.161 1.2808 2.7926 1.2917.6318 2.8183.407 3.4036-.5013zm.5404-3.2927c-.469.7278-.0363 1.6887.985 2.1883 1.0207.4992 2.188.3205 2.657-.407.469-.7274.0364-1.689-.9844-2.1884-1.0212-.4995-2.1886-.3208-2.6576.407zm-2.9975 8.3674c-1.0212-.4996-2.1886-.321-2.6575.4066-.469.7276-.0363 1.689.985 2.1885 1.0207.4994 2.1882.3206 2.657-.407.469-.7275.0363-1.689-.9845-2.188zm-23.7925.5257c.5554-.9268-.0595-2.16-1.371-2.7493-1.3114-.5893-2.8302-.315-3.3856.6117-.5552.9266.06 2.16 1.3714 2.7493 1.3115.5894 2.83.315 3.3853-.6116zm5.301-3.9448c-.0703.012-.1368.024-.1875.0237-1.0734-.0054-2.6907.5753-3.7157 2.2328l-.039.064c-.9846 1.6432-.6504 3.091-.009 3.8986.022.0278.0427.0766.0646.128.0255.061.0523.122.0868.1794.3596.6003.8923 1.0633 1.4997 1.3032.6447.2552 1.299.2325 1.8414-.0626.219-.1193.3884-.278.505-.4723.24-.4004.2217-.874.201-1.4226-.0138-.349-.0277-.7092.0225-1.08.009-.0402.0756-.191.215-.4236.166-.2768.311-.464.352-.4994.3222-.2394.666-.422.9985-.599.51-.2708.9913-.5267 1.2332-.9303.1038-.1732.1562-.3627.1563-.5637.0002-1.109-1.3364-1.921-2.979-1.81-.0825.0055-.1647.0194-.2458.034zm-3.1593.3713c.555-.9263-.0597-2.1596-1.3712-2.749-1.3115-.5893-2.8303-.315-3.3855.6114-.5555.9268.0597 2.16 1.3712 2.7495 1.3114.5893 2.83.315 3.3854-.612zm.4328-3.3086c-.4452.7427.0187 1.689 1.0557 2.155 1.0364.466 2.1974.2493 2.6423-.493.445-.7424-.0186-1.6895-1.0552-2.1553-1.037-.466-2.1977-.2494-2.643.4933zm-2.7233 8.4606c-1.037-.466-2.198-.2494-2.643.493-.445.7425.0186 1.6893 1.0556 2.1553 1.0365.4658 2.1975.249 2.6425-.4933.445-.7425-.0187-1.6892-1.0552-2.155zm-11.576-22.5607c.2052-1.0608-.794-2.0096-2.228-2.1154-1.434-.1058-2.7676.671-2.973 1.7316-.2052 1.0604.7943 2.0093 2.228 2.115 1.434.106 2.7675-.671 2.9728-1.7313zm3.634-5.5187c-.062.0354-.1203.0695-.168.0865-1.0108.3616-2.3323 1.46-2.7293 3.368l-.0147.0734c-.364 1.8806.445 3.1272 1.3237 3.667.03.0185.0662.0573.1044.0983.0448.0485.091.0967.1428.1388.5432.4413 1.202.6944 1.855.7124.693.0195 1.3-.2253 1.709-.688.165-.187.27-.394.313-.6164.089-.4582-.09-.897-.297-1.4056-.132-.3233-.2683-.6573-.348-1.023-.005-.0407.006-.205.0576-.4715.0613-.317.1338-.5425.16-.5898.221-.335.482-.6242.734-.904.3866-.4287.7515-.8337.841-1.2956.0383-.1983.0228-.3943-.0458-.5833-.3788-1.0424-1.9123-1.3487-3.4182-.6832-.0756.0335-.148.0746-.2194.116zm-2.8423 1.4285c.2052-1.0602-.794-2.0093-2.228-2.115-1.4338-.106-2.7675.671-2.9728 1.7313-.2055 1.0607.794 2.0096 2.228 2.1154 1.434.1058 2.7673-.671 2.9727-1.7318zm-.7238-3.2574c-.1646.8503.5947 1.581 1.7285 1.6648 1.1333.0835 2.1504-.5167 2.315-1.3664.1644-.8497-.595-1.5814-1.728-1.665-1.134-.0836-2.151.5166-2.3155 1.3666zm.3312 8.882c-1.1338-.0835-2.1508.5167-2.3153 1.3664-.1646.8498.5946 1.5812 1.7284 1.665 1.1332.0835 2.1504-.5168 2.315-1.3666.1644-.85-.595-1.5812-1.7282-1.6648zm-17.4127 9.65c-.3414-1.0253-1.6776-1.362-2.979-.7506-1.3014.6112-2.0826 1.9423-1.7412 2.9673.3414 1.0248 1.678 1.3614 2.9793.75 1.3015-.611 2.0823-1.9422 1.741-2.967zm.4594-6.592c-.0366.0613-.0707.1196-.104.158-.7033.811-1.316 2.4162-.726 4.2736l.0233.0712c.6053 1.8173 1.9217 2.5068 2.9523 2.546.0353.0015.0858.0175.1392.0345.0626.0204.1264.0398.1923.051.69.118 1.388.0154 1.966-.2892.6135-.323 1.0225-.8342 1.152-1.438.052-.244.042-.476-.0298-.6907-.1475-.443-.5186-.7376-.9485-1.079-.2737-.217-.5562-.4413-.805-.721-.0247-.0327-.0955-.1815-.1812-.439-.102-.3062-.1495-.538-.1498-.5923.0283-.4003.1138-.7803.196-1.1477.1266-.5633.246-1.0952.0973-1.5416-.0637-.1917-.1734-.355-.326-.486-.8413-.7224-2.328-.237-3.3137 1.0816-.0495.0662-.0925.1376-.1343.2086zm-1.776 2.6392c-.341-1.0246-1.6775-1.3613-2.979-.75-1.3013.611-2.0824 1.9424-1.741 2.967.3413 1.0252 1.678 1.3616 2.9792.7504 1.3015-.6113 2.0823-1.9422 1.7408-2.9674zm-2.2286-2.4833c.2737.8213 1.294 1.0857 2.323.6024 1.0285-.483 1.6203-1.505 1.3468-2.3262-.2735-.821-1.294-1.0863-2.3226-.6032-1.029.4834-1.6208 1.5054-1.3472 2.327zm4.646 7.577c-1.029.4833-1.6208 1.5053-1.3473 2.3265.2736.8212 1.294 1.086 2.323.6028 1.0286-.483 1.6204-1.5052 1.347-2.3265-.2737-.8213-1.294-1.086-2.3226-.603zM223.282 8.7112c-.5615-.923-1.939-.953-3.0714-.0668-1.1322.8862-1.5966 2.358-1.035 3.281.5613.9228 1.9392.9527 3.0714.0665 1.1324-.8862 1.5965-2.3578 1.035-3.2806zm-1.023-6.528c-.022.0678-.042.1322-.066.177-.5046.9474-.744 2.649.246 4.328l.0385.064c.9956 1.6367 2.4326 2.015 3.446 1.8233.0346-.0064.0875-.002.1433.0026.0656.006.132.0106.1988.0067.6988-.039 1.3565-.2947 1.8518-.7206.526-.4517.8105-1.0413.8018-1.6587-.004-.2494-.0652-.4733-.183-.6667-.2425-.3988-.67-.6032-1.1652-.8403-.3153-.1504-.6407-.306-.9455-.523-.0315-.0264-.1337-.1557-.2747-.3875-.1677-.2757-.2658-.4913-.278-.544-.062-.3965-.0634-.786-.065-1.1624-.002-.5775-.005-1.1226-.2493-1.5246-.105-.1725-.2483-.307-.4262-.4007-.9814-.5166-2.3223.288-2.989 1.7936-.0334.0757-.0594.155-.0843.2335zm-1.142 2.9688c-.5614-.9225-1.939-.9527-3.0714-.0664-1.1322.8862-1.5966 2.358-1.0353 3.2808.5616.923 1.9395.953 3.0717.0667 1.1324-.8862 1.5965-2.358 1.035-3.281zm-2.7267-1.9235c.45.7398 1.5035.77 2.3988.0692.895-.7005 1.2438-1.8287.794-2.5682-.45-.7393-1.504-.77-2.3986-.0697-.8952.7006-1.244 1.829-.794 2.5686zM224.61 9.578c-.8955.7008-1.2443 1.829-.7945 2.5685.45.7395 1.5037.77 2.399.0693.8947-.7005 1.2436-1.8288.7937-2.5683-.4498-.7395-1.5036-.77-2.3984-.0695zm-41.328 1.1333c-.5615-.923-1.939-.953-3.0714-.0668-1.1322.8862-1.5966 2.358-1.035 3.281.5613.9228 1.9392.9527 3.0714.0665 1.1324-.8862 1.5965-2.3578 1.035-3.2806zm-1.023-6.528c-.022.0678-.042.1322-.066.177-.5046.9474-.744 2.649.246 4.328l.0385.064c.9956 1.6367 2.4326 2.015 3.446 1.8233.0346-.0064.0875-.002.1433.0026.0656.006.132.0106.1988.0067.6988-.039 1.3565-.2947 1.8518-.7206.526-.4517.8105-1.0413.8018-1.6587-.004-.2494-.0652-.4733-.183-.6667-.2425-.3988-.67-.6032-1.1652-.8403-.3153-.1504-.6407-.306-.9455-.523-.0315-.0264-.1337-.1557-.2747-.3875-.1677-.2757-.2658-.4913-.278-.544-.062-.3965-.0634-.786-.065-1.1624-.002-.5775-.005-1.1226-.2493-1.5246-.105-.1725-.2483-.307-.4262-.4007-.9814-.5166-2.3223.288-2.989 1.7936-.0334.0757-.0594.155-.0843.2335zm-1.142 2.9688c-.5614-.9225-1.939-.9527-3.0714-.0664-1.1322.8862-1.5966 2.358-1.0353 3.2808.5616.923 1.9395.953 3.0717.0667 1.1324-.8862 1.5965-2.358 1.035-3.281zm-2.7267-1.9235c.45.7398 1.5035.77 2.3988.0692.895-.7005 1.2438-1.8287.794-2.5682-.45-.7393-1.504-.77-2.3986-.0697-.8952.7006-1.244 1.829-.794 2.5686zm6.2196 6.3496c-.8955.7008-1.2443 1.829-.7945 2.5685.45.7395 1.5037.77 2.399.0693.8947-.7005 1.2436-1.8288.7937-2.5683-.4498-.7395-1.5036-.77-2.3984-.0695zm16.672 13.1333c-.5615-.923-1.939-.953-3.0714-.0668-1.1322.8862-1.5966 2.358-1.035 3.281.5613.9228 1.9392.9527 3.0714.0665 1.1324-.8862 1.5965-2.3578 1.035-3.2806zm-1.023-6.528c-.022.0678-.042.1322-.066.177-.5046.9474-.744 2.649.246 4.328l.0385.064c.9956 1.6367 2.4326 2.015 3.446 1.8233.0346-.0064.0875-.002.1433.0026.0656.006.132.0106.1988.0067.6988-.039 1.3565-.2947 1.8518-.7206.526-.4517.8105-1.0413.8018-1.6587-.004-.2494-.0652-.4733-.183-.6667-.2425-.3988-.67-.6032-1.1652-.8403-.3153-.1504-.6407-.306-.9455-.523-.0315-.0264-.1337-.1557-.2747-.3875-.1677-.2757-.2658-.4913-.278-.544-.062-.3965-.0634-.786-.065-1.1624-.002-.5775-.005-1.1226-.2493-1.5246-.105-.1725-.2483-.307-.4262-.4007-.9814-.5166-2.3223.288-2.989 1.7936-.0334.0757-.0594.155-.0843.2335zm-1.142 2.9688c-.5614-.9225-1.939-.9527-3.0714-.0664-1.1322.8862-1.5966 2.358-1.0353 3.2808.5616.923 1.9395.953 3.0717.0667 1.1324-.8862 1.5965-2.358 1.035-3.281zm-2.7267-1.9235c.45.7398 1.5035.77 2.3988.0692.895-.7005 1.2438-1.8287.794-2.5682-.45-.7393-1.504-.77-2.3986-.0697-.8952.7006-1.244 1.829-.794 2.5686zm6.2196 6.3496c-.8955.7008-1.2443 1.829-.7945 2.5685.45.7395 1.5037.77 2.399.0693.8947-.7005 1.2436-1.8288.7937-2.5683-.4498-.7395-1.5036-.77-2.3984-.0695zm-29.328 3.1333c-.5615-.923-1.939-.953-3.0714-.0668-1.1322.8862-1.5966 2.358-1.035 3.281.5613.9228 1.9392.9527 3.0714.0665 1.1324-.8862 1.5965-2.3578 1.035-3.2806zm-1.023-6.528c-.022.0678-.042.1322-.066.177-.5046.9474-.744 2.649.246 4.328l.0385.064c.9956 1.6367 2.4326 2.015 3.446 1.8233.0346-.0064.0875-.002.1433.0026.0656.006.132.0106.1988.0067.6988-.039 1.3565-.2947 1.8518-.7206.526-.4517.8105-1.0413.8018-1.6587-.004-.2494-.0652-.4733-.183-.6667-.2425-.3988-.67-.6032-1.1652-.8403-.3153-.1504-.6407-.306-.9455-.523-.0315-.0264-.1337-.1557-.2747-.3875-.1677-.2757-.2658-.4913-.278-.544-.062-.3965-.0634-.786-.065-1.1624-.002-.5775-.005-1.1226-.2493-1.5246-.105-.1725-.2483-.307-.4262-.4007-.9814-.5166-2.3223.288-2.989 1.7936-.0334.0757-.0594.155-.0843.2335zm-1.142 2.9688c-.5614-.9225-1.939-.9527-3.0714-.0664-1.1322.8862-1.5966 2.358-1.0353 3.2808.5616.923 1.9395.953 3.0717.0667 1.1324-.8862 1.5965-2.358 1.035-3.281zm-2.7267-1.9235c.45.7398 1.5035.77 2.3988.0692.895-.7005 1.2438-1.8287.794-2.5682-.45-.7393-1.504-.77-2.3986-.0697-.8952.7006-1.244 1.829-.794 2.5686zm6.2196 6.3496c-.8955.7008-1.2443 1.829-.7945 2.5685.45.7395 1.5037.77 2.399.0693.8947-.7005 1.2436-1.8288.7937-2.5683-.4498-.7395-1.5036-.77-2.3984-.0695zM129.282 28.7113c-.5615-.923-1.939-.953-3.0714-.0668-1.1322.8862-1.5966 2.358-1.035 3.281.5613.9228 1.9392.9527 3.0714.0665 1.1324-.8862 1.5965-2.3578 1.035-3.2806zm-1.023-6.528c-.022.0678-.042.1322-.066.177-.5046.9474-.744 2.649.246 4.328l.0385.064c.9956 1.6367 2.4326 2.015 3.446 1.8233.0346-.0064.0875-.002.1433.0026.0656.006.132.0106.1988.0067.6988-.039 1.3565-.2947 1.8518-.7206.526-.4517.8105-1.0413.8018-1.6587-.004-.2494-.0652-.4733-.183-.6667-.2425-.3988-.67-.6032-1.1652-.8403-.3153-.1504-.6407-.306-.9455-.523-.0315-.0264-.1337-.1557-.2747-.3875-.1677-.2757-.2658-.4913-.278-.544-.062-.3965-.0634-.786-.065-1.1624-.002-.5775-.005-1.1226-.2493-1.5246-.105-.1725-.2483-.307-.4262-.4007-.9814-.5166-2.3223.288-2.989 1.7936-.0334.0757-.0594.155-.0843.2335zm-1.142 2.9688c-.5614-.9225-1.939-.9527-3.0714-.0664-1.1322.8862-1.5966 2.358-1.0353 3.2808.5616.923 1.9395.953 3.0717.0667 1.1324-.8862 1.5965-2.358 1.035-3.281zm-2.7267-1.9235c.45.7398 1.5035.77 2.3988.0692.895-.7005 1.2438-1.8287.794-2.5682-.45-.7393-1.504-.77-2.3986-.0697-.8952.7006-1.244 1.829-.794 2.5686zm6.2196 6.3496c-.8955.7008-1.2443 1.829-.7945 2.5685.45.7395 1.5037.77 2.399.0693.8947-.7005 1.2436-1.8288.7937-2.5683-.4498-.7395-1.5036-.77-2.3984-.0695zM149.282 28.7113c-.5615-.923-1.939-.953-3.0714-.0668-1.1322.8862-1.5966 2.358-1.035 3.281.5613.9228 1.9392.9527 3.0714.0665 1.1324-.8862 1.5965-2.3578 1.035-3.2806zm-1.023-6.528c-.022.0678-.042.1322-.066.177-.5046.9474-.744 2.649.246 4.328l.0385.064c.9956 1.6367 2.4326 2.015 3.446 1.8233.0346-.0064.0875-.002.1433.0026.0656.006.132.0106.1988.0067.6988-.039 1.3565-.2947 1.8518-.7206.526-.4517.8105-1.0413.8018-1.6587-.004-.2494-.0652-.4733-.183-.6667-.2425-.3988-.67-.6032-1.1652-.8403-.3153-.1504-.6407-.306-.9455-.523-.0315-.0264-.1337-.1557-.2747-.3875-.1677-.2757-.2658-.4913-.278-.544-.062-.3965-.0634-.786-.065-1.1624-.002-.5775-.005-1.1226-.2493-1.5246-.105-.1725-.2483-.307-.4262-.4007-.9814-.5166-2.3223.288-2.989 1.7936-.0334.0757-.0594.155-.0843.2335zm-1.142 2.9688c-.5614-.9225-1.939-.9527-3.0714-.0664-1.1322.8862-1.5966 2.358-1.0353 3.2808.5616.923 1.9395.953 3.0717.0667 1.1324-.8862 1.5965-2.358 1.035-3.281zm-2.7267-1.9235c.45.7398 1.5035.77 2.3988.0692.895-.7005 1.2438-1.8287.794-2.5682-.45-.7393-1.504-.77-2.3986-.0697-.8952.7006-1.244 1.829-.794 2.5686zm6.2196 6.3496c-.8955.7008-1.2443 1.829-.7945 2.5685.45.7395 1.5037.77 2.399.0693.8947-.7005 1.2436-1.8288.7937-2.5683-.4498-.7395-1.5036-.77-2.3984-.0695zM123.282 46.7113c-.5615-.923-1.939-.953-3.0714-.0668-1.1322.8862-1.5966 2.358-1.035 3.281.5613.9228 1.9392.9527 3.0714.0665 1.1324-.8862 1.5965-2.3578 1.035-3.2806zm-1.023-6.528c-.022.0678-.042.1322-.066.177-.5046.9474-.744 2.649.246 4.328l.0385.064c.9956 1.6367 2.4326 2.015 3.446 1.8233.0346-.0064.0875-.002.1433.0026.0656.006.132.0106.1988.0067.6988-.039 1.3565-.2947 1.8518-.7206.526-.4517.8105-1.0413.8018-1.6587-.004-.2494-.0652-.4733-.183-.6667-.2425-.3988-.67-.6032-1.1652-.8403-.3153-.1504-.6407-.306-.9455-.523-.0315-.0264-.1337-.1557-.2747-.3875-.1677-.2757-.2658-.4913-.278-.544-.062-.3965-.0634-.786-.065-1.1624-.002-.5775-.005-1.1226-.2493-1.5246-.105-.1725-.2483-.307-.4262-.4007-.9814-.5166-2.3223.288-2.989 1.7936-.0334.0757-.0594.155-.0843.2335zm-1.142 2.9688c-.5614-.9225-1.939-.9527-3.0714-.0664-1.1322.8862-1.5966 2.358-1.0353 3.2808.5616.923 1.9395.953 3.0717.0667 1.1324-.8862 1.5965-2.358 1.035-3.281zm-2.7267-1.9235c.45.7398 1.5035.77 2.3988.0692.895-.7005 1.2438-1.8287.794-2.5682-.45-.7393-1.504-.77-2.3986-.0697-.8952.7006-1.244 1.829-.794 2.5686zm6.2196 6.3496c-.8955.7008-1.2443 1.829-.7945 2.5685.45.7395 1.5037.77 2.399.0693.8947-.7005 1.2436-1.8288.7937-2.5683-.4498-.7395-1.5036-.77-2.3984-.0695zM96.282 43.7113c-.5615-.923-1.939-.953-3.0714-.0668-1.1322.8862-1.5966 2.358-1.035 3.281.5613.9228 1.9392.9527 3.0714.0665 1.1324-.8862 1.5965-2.3578 1.035-3.2806zm-1.023-6.528c-.022.0678-.042.1322-.066.177-.5046.9474-.744 2.649.246 4.328l.0385.064c.9956 1.6367 2.4326 2.015 3.446 1.8233.0346-.0064.0875-.002.1433.0026.0656.006.132.0106.1988.0067.6988-.039 1.3565-.2947 1.8518-.7206.526-.4517.8105-1.0413.8018-1.6587-.004-.2494-.0652-.4733-.183-.6667-.2425-.3988-.67-.6032-1.1652-.8403-.3153-.1504-.6407-.306-.9455-.523-.0315-.0264-.1337-.1557-.2747-.3875-.1677-.2757-.2658-.4913-.278-.544-.062-.3965-.0634-.786-.065-1.1624-.002-.5775-.005-1.1226-.2493-1.5246-.105-.1725-.2483-.307-.4262-.4007-.9814-.5166-2.3223.288-2.989 1.7936-.0334.0757-.0594.155-.0843.2335zm-1.142 2.9688c-.5614-.9225-1.939-.9527-3.0714-.0664-1.1322.8862-1.5966 2.358-1.0353 3.2808.5616.923 1.9395.953 3.0717.0667 1.1324-.8862 1.5965-2.358 1.035-3.281zm-2.7267-1.9235c.45.7398 1.5035.77 2.3988.0692.895-.7005 1.2438-1.8287.794-2.5682-.45-.7393-1.504-.77-2.3986-.0697-.8952.7006-1.244 1.829-.794 2.5686zM97.61 44.578c-.8955.7008-1.2443 1.829-.7945 2.5685.45.7395 1.5037.77 2.399.0693.8947-.7005 1.2436-1.8288.7937-2.5683-.4498-.7395-1.5036-.77-2.3984-.0695zM83.282 68.7113c-.5615-.923-1.939-.953-3.0714-.0668-1.1322.8862-1.5966 2.358-1.035 3.281.5613.9228 1.9392.9527 3.0714.0665 1.1324-.8862 1.5965-2.3578 1.035-3.2806zm-1.023-6.528c-.022.0678-.042.1322-.066.177-.5046.9474-.744 2.649.246 4.328l.0385.064c.9956 1.6367 2.4326 2.015 3.446 1.8233.0346-.0064.0875-.002.1433.0026.0656.006.132.0106.1988.0067.6988-.039 1.3565-.2947 1.8518-.7206.526-.4517.8105-1.0413.8018-1.6587-.0036-.2494-.0652-.4733-.183-.6667-.2425-.3988-.67-.6032-1.1652-.8403-.3153-.1504-.6407-.306-.9455-.523-.0315-.0264-.1337-.1557-.2747-.3875-.1677-.2757-.2658-.4913-.278-.544-.062-.3965-.0634-.786-.065-1.1624-.0024-.5775-.0048-1.1226-.2493-1.5246-.105-.1725-.2483-.307-.4262-.4007-.9814-.5166-2.3223.288-2.989 1.7936-.0334.0757-.0594.155-.0843.2335zm-1.142 2.9688c-.5614-.9225-1.939-.9527-3.0714-.0664-1.1322.8862-1.5966 2.358-1.0353 3.2808.5616.923 1.9395.953 3.0717.0667 1.1324-.8862 1.5965-2.358 1.035-3.281zm-2.7267-1.9235c.45.7398 1.5035.77 2.3988.0692.895-.7005 1.2438-1.8287.794-2.5682-.45-.7393-1.504-.77-2.3986-.0697-.8952.7006-1.244 1.829-.794 2.5686zM84.61 69.578c-.8955.7008-1.2443 1.829-.7945 2.5685.45.7395 1.5037.77 2.399.0693.8947-.7005 1.2436-1.8288.7937-2.5683-.4498-.7395-1.5036-.77-2.3984-.0695zM32.282 81.7113c-.5615-.923-1.939-.953-3.0714-.0668-1.1322.8862-1.5966 2.358-1.035 3.281.5613.9228 1.9392.9527 3.0714.0665 1.1324-.8862 1.5965-2.3578 1.035-3.2806zm-1.023-6.528c-.022.0678-.042.1322-.066.177-.5046.9474-.744 2.649.246 4.328l.0385.064c.9956 1.6367 2.4326 2.015 3.446 1.8233.0346-.0064.0875-.002.1433.0026.0656.006.132.0106.1988.0067.6988-.039 1.3565-.2947 1.8518-.7206.526-.4517.8105-1.0413.8018-1.6587-.0036-.2494-.0652-.4733-.183-.6667-.2425-.3988-.67-.6032-1.1652-.8403-.3153-.1504-.6407-.306-.9455-.523-.0315-.0264-.1337-.1557-.2747-.3875-.1677-.2757-.2658-.4913-.278-.544-.062-.3965-.0634-.786-.065-1.1624-.0024-.5775-.0048-1.1226-.2493-1.5246-.105-.1725-.2483-.307-.4262-.4007-.9814-.5166-2.3223.288-2.989 1.7936-.0334.0757-.0594.155-.0843.2335zm-1.142 2.9688c-.5614-.9225-1.939-.9527-3.0714-.0664-1.1322.8862-1.5966 2.358-1.0353 3.2808.5616.923 1.9395.953 3.0717.0667 1.1324-.8862 1.5965-2.358 1.035-3.281zm-2.7267-1.9235c.45.7398 1.5035.77 2.3988.0692.895-.7005 1.2438-1.8287.794-2.5682-.45-.7393-1.504-.77-2.3986-.0697-.8952.7006-1.244 1.829-.794 2.5686zM33.61 82.578c-.8955.7008-1.2443 1.829-.7945 2.5685.45.7395 1.5037.77 2.399.0693.8947-.7005 1.2436-1.8288.7937-2.5683-.4498-.7395-1.5036-.77-2.3984-.0695zM30.282 113.7113c-.5615-.923-1.939-.953-3.0714-.0668-1.1322.8862-1.5966 2.358-1.035 3.281.5613.9228 1.9392.9527 3.0714.0665 1.1324-.8862 1.5965-2.3578 1.035-3.2806zm-1.023-6.528c-.022.0678-.042.1322-.066.177-.5046.9474-.744 2.649.246 4.328l.0385.064c.9956 1.6367 2.4326 2.015 3.446 1.8233.0346-.0064.0875-.002.1433.0026.0656.006.132.0106.1988.0067.6988-.039 1.3565-.2947 1.8518-.7206.526-.4517.8105-1.0413.8018-1.6587-.0036-.2494-.0652-.4733-.183-.6667-.2425-.3988-.67-.6032-1.1652-.8403-.3153-.1504-.6407-.306-.9455-.523-.0315-.0264-.1337-.1557-.2747-.3875-.1677-.2757-.2658-.4913-.278-.544-.062-.3965-.0634-.786-.065-1.1625-.0024-.5774-.0048-1.1225-.2493-1.5245-.105-.1725-.2483-.307-.4262-.4007-.9814-.5166-2.3223.288-2.989 1.7936-.0334.0757-.0594.155-.0843.2335zm-1.142 2.9688c-.5614-.9225-1.939-.9527-3.0714-.0664-1.1322.8862-1.5966 2.358-1.0353 3.2808.5616.923 1.9395.953 3.0717.0667 1.1324-.8862 1.5965-2.358 1.035-3.281zm-2.7267-1.9235c.45.7398 1.5035.77 2.3988.0692.895-.7005 1.2438-1.8287.794-2.5682-.45-.7393-1.504-.77-2.3986-.0697-.8952.7006-1.244 1.829-.794 2.5686zm6.2196 6.3496c-.8955.7008-1.2443 1.829-.7945 2.5685.45.7395 1.5037.77 2.399.0693.8947-.7005 1.2436-1.8288.7937-2.5683-.4498-.7395-1.5036-.77-2.3984-.0695zM16.8566 93.8863c-.732-.7946-2.0888-.553-3.0246.5385-.9357 1.0914-1.1017 2.626-.3696 3.4205.732.7943 2.0888.5526 3.0246-.539.936-1.0915 1.1016-2.6257.3697-3.42zM14.57 87.687c-.008.0707-.0155.138-.03.1865-.3086 1.028-.2084 2.7436 1.092 4.195l.0505.0554c1.298 1.409 2.7814 1.4972 3.7372 1.11.0328-.013.0854-.0193.141-.0257.0657-.0072.1318-.0157.1965-.0326.6774-.1755 1.272-.5556 1.674-1.0706.4267-.5462.5898-1.1802.46-1.784-.0527-.2437-.157-.451-.3106-.6176-.3163-.3434-.7756-.4598-1.3078-.5948-.3388-.0855-.6885-.174-1.03-.3268-.036-.02-.1617-.1266-.3455-.326-.2187-.2375-.3572-.4295-.3797-.4788-.1385-.3766-.2166-.7582-.2923-1.127-.1158-.5656-.2253-1.0996-.544-1.4457-.137-.1485-.304-.2523-.4968-.309-1.0638-.3136-2.2202.739-2.578 2.3462-.0178.0807-.0277.1634-.0367.2454zm-.536 3.1354c-.732-.7942-2.0888-.5528-3.0246.5388-.9358 1.0915-1.1017 2.626-.37 3.4203.7322.7946 2.089.553 3.025-.5387.9358-1.0916 1.1015-2.6258.3694-3.4205zm-3.0518-1.3498c.5867.6368 1.6256.459 2.3655-.404.7397-.8627.86-2.0375.2734-2.674-.5863-.6365-1.6257-.4594-2.3654.4033-.74.863-.86 2.038-.2734 2.6746zm7.3467 5.0026c-.74.863-.8603 2.0378-.2738 2.6744s1.6257.4593 2.3656-.4038c.7396-.8628.8597-2.0377.2732-2.6743s-1.6256-.459-2.3653.4036zM8.1385 125.8662c-.9946-.422-2.131.3574-2.5334 1.7377-.4024 1.3802.079 2.8465 1.0737 3.2686.9944.422 2.131-.3578 2.5333-1.738.4026-1.3805-.079-2.8465-1.0734-3.2684zm-4.6396-4.705c.022.068.043.132.0495.1824.143 1.0638.9416 2.5854 2.725 3.3715l.0687.0297c1.7634.7483 3.1513.217 3.8623-.5298.0245-.0256.07-.053.118-.0817.0568-.0336.1135-.0685.1655-.1106.545-.4392.93-1.0307 1.0836-1.6655.1636-.6738.0508-1.3186-.3165-1.815-.1483-.2004-.329-.3464-.5374-.4348-.4297-.1824-.8962-.099-1.4367-.002-.344.0617-.699.1253-1.073.127-.041-.003-.1996-.0486-.4494-.1546-.297-.126-.5024-.244-.5432-.2795-.2815-.2862-.51-.6016-.731-.9063-.3388-.4676-.6587-.909-1.092-1.0927-.1858-.079-.3807-.1046-.5798-.077-1.0985.1532-1.718 1.589-1.381 3.2007.017.081.042.1603.0676.2387zm.8045 3.0777c-.9942-.422-2.1307.3574-2.5332 1.738-.4025 1.38.0793 2.8464 1.0734 3.2683.9947.422 2.131-.3577 2.5336-1.738.4025-1.3804-.079-2.8464-1.0738-3.2684zm-3.3366.0284c.797.3382 1.67-.252 1.9883-1.3434.318-1.0908-.0568-2.2107-.8536-2.5488-.7967-.338-1.6706.252-1.9887 1.343-.318 1.0913.0568 2.211.854 2.5493zm8.7556 1.528c-.3182 1.0915.0567 2.2114.8535 2.5494.797.338 1.6705-.252 1.9888-1.3434.318-1.091-.057-2.211-.854-2.549-.7967-.338-1.6702.252-1.9883 1.343zM37.1385 134.8662c-.9946-.422-2.131.3574-2.5334 1.7377-.4024 1.3802.079 2.8465 1.0737 3.2686.9944.422 2.131-.3578 2.5333-1.738.4026-1.3805-.079-2.8465-1.0734-3.2684zm-4.6396-4.705c.022.068.043.132.0495.1824.143 1.0638.9416 2.5854 2.725 3.3715l.0687.0297c1.7634.7483 3.1513.217 3.8623-.5298.0245-.0256.07-.053.118-.0817.0568-.0336.1135-.0685.1655-.1106.545-.4392.93-1.0307 1.0836-1.6655.1636-.6738.0508-1.3186-.3165-1.815-.1483-.2004-.329-.3464-.5374-.4348-.4297-.1824-.8962-.099-1.4367-.002-.344.0617-.699.1253-1.073.127-.041-.003-.1996-.0486-.4494-.1546-.297-.126-.5024-.244-.5432-.2795-.2815-.2862-.51-.6016-.731-.9063-.3388-.4676-.6587-.909-1.092-1.0927-.1858-.079-.3807-.1046-.5798-.077-1.0985.1532-1.718 1.589-1.381 3.2007.017.081.042.1603.0676.2387zm.8045 3.0777c-.9942-.422-2.1307.3574-2.5332 1.738-.4025 1.38.0793 2.8464 1.0734 3.2683.9947.422 2.131-.3577 2.5336-1.738.4025-1.3804-.079-2.8464-1.0738-3.2684zm-3.3366.0284c.797.3382 1.67-.252 1.9883-1.3434.318-1.0908-.0568-2.2107-.8536-2.5488-.7967-.338-1.6706.252-1.9887 1.343-.318 1.0913.0568 2.211.854 2.5493zm8.7556 1.528c-.3182 1.0915.0567 2.2114.8535 2.5494.797.338 1.6705-.252 1.9888-1.3434.318-1.091-.057-2.211-.854-2.549-.7967-.338-1.6702.252-1.9883 1.343zM20.1385 156.8662c-.9946-.422-2.131.3574-2.5334 1.7377-.4024 1.3802.079 2.8465 1.0737 3.2686.9944.422 2.131-.3578 2.5333-1.738.4026-1.3805-.079-2.8465-1.0734-3.2684zm-4.6396-4.705c.022.068.043.132.0495.1824.143 1.0638.9416 2.5854 2.725 3.3715l.0687.0297c1.7634.7483 3.1513.217 3.8623-.5298.0245-.0256.07-.053.118-.0817.0568-.0336.1135-.0685.1655-.1106.545-.4392.93-1.0307 1.0836-1.6655.1636-.6738.0508-1.3186-.3165-1.815-.1483-.2004-.329-.3464-.5374-.4348-.4297-.1824-.8962-.099-1.4367-.002-.344.0617-.699.1253-1.073.127-.041-.003-.1996-.0486-.4494-.1546-.297-.126-.5024-.244-.5432-.2795-.2815-.2862-.51-.6016-.731-.9063-.3388-.4676-.6587-.909-1.092-1.0927-.1858-.079-.3807-.1046-.5798-.077-1.0985.1532-1.718 1.589-1.381 3.2007.017.081.042.1603.0676.2387zm.8045 3.0777c-.9942-.422-2.1307.3574-2.5332 1.738-.4025 1.38.0793 2.8464 1.0734 3.2683.9947.422 2.131-.3577 2.5336-1.738.4025-1.3804-.079-2.8464-1.0738-3.2684zm-3.3366.0284c.797.3382 1.67-.252 1.9883-1.3434.318-1.0908-.0568-2.2107-.8536-2.5488-.7967-.338-1.6706.252-1.9887 1.343-.318 1.0913.0568 2.211.854 2.5493zm8.7556 1.528c-.3182 1.0915.0567 2.2114.8535 2.5494.797.338 1.6705-.252 1.9888-1.3434.318-1.091-.057-2.211-.854-2.549-.7967-.338-1.6702.252-1.9883 1.343zM29.2455 187.3585c-1.0804.002-1.8195 1.1653-1.6477 2.5928.1716 1.4275 1.19 2.587 2.2705 2.5847 1.0802-.002 1.8193-1.1655 1.6476-2.593-.1717-1.4275-1.1903-2.5867-2.2705-2.5844zm-6.114-2.5056c.0466.0536.0912.1044.117.148.549.9223 1.881 2.008 3.8298 2.031l.075.0003c1.9155-.004 2.9834-1.0375 3.344-2.0036.0126-.033.0437-.076.0767-.1214.039-.053.0775-.1075.1088-.1666.3286-.618.4504-1.313.3426-1.9572-.114-.684-.471-1.2327-1.0036-1.545-.2152-.126-.4387-.1894-.665-.189-.467.001-.8633.261-1.3225.5618-.292.1918-.5935.3897-.937.538-.039.0133-.2025.0337-.474.0343-.3226.0007-.5577-.027-.6093-.0438-.371-.1527-.705-.353-1.028-.5465-.4952-.297-.9627-.5774-1.4332-.5764-.202.0004-.3913.0533-.5636.157-.95.572-.956 2.136-.0136 3.486.0473.0675.1016.131.156.193zm1.948 2.5144c-1.08.002-1.8192 1.1653-1.6474 2.593.1718 1.4274 1.1905 2.587 2.2704 2.5846 1.0806-.002 1.8196-1.1655 1.648-2.593-.1718-1.4276-1.1903-2.5868-2.271-2.5845zm-3.0576 1.3362c.866-.002 1.4372-.8874 1.3014-2.0162-.1357-1.1282-.9202-2.011-1.7857-2.009-.8655.002-1.4376.8874-1.302 2.0157.136 1.1288.9204 2.0115 1.7863 2.0096zm8.6527-2.032c.1358 1.1287.9203 2.0115 1.7858 2.0096.8656-.002 1.4374-.8875 1.3017-2.0162-.1358-1.128-.9204-2.011-1.786-2.009-.8655.002-1.4372.8875-1.3015 2.0157zM44.1385 168.8662c-.9946-.422-2.131.3574-2.5334 1.7377-.4024 1.3802.079 2.8465 1.0737 3.2686.9944.422 2.131-.3578 2.5333-1.738.4026-1.3805-.079-2.8465-1.0734-3.2684zm-4.6396-4.705c.022.068.043.132.0495.1824.143 1.0638.9416 2.5854 2.725 3.3715l.0687.0297c1.7634.7483 3.1513.217 3.8623-.5298.0245-.0256.07-.053.118-.0817.0568-.0336.1135-.0685.1655-.1106.545-.4392.93-1.0307 1.0836-1.6655.1636-.6738.0508-1.3186-.3165-1.815-.1483-.2004-.329-.3464-.5374-.4348-.4297-.1824-.8962-.099-1.4367-.002-.344.0617-.699.1253-1.073.127-.041-.003-.1996-.0486-.4494-.1546-.297-.126-.5024-.244-.5432-.2795-.2815-.2862-.51-.6016-.731-.9063-.3388-.4676-.6587-.909-1.092-1.0927-.1858-.079-.3807-.1046-.5798-.077-1.0985.1532-1.718 1.589-1.381 3.2007.017.081.042.1603.0676.2387zm.8045 3.0777c-.9942-.422-2.1307.3574-2.5332 1.738-.4025 1.38.0793 2.8464 1.0734 3.2683.9947.422 2.131-.3577 2.5336-1.738.4025-1.3804-.079-2.8464-1.0738-3.2684zm-3.3366.0284c.797.3382 1.67-.252 1.9883-1.3434.318-1.0908-.0568-2.2107-.8536-2.5488-.7967-.338-1.6706.252-1.9887 1.343-.318 1.0913.0568 2.211.854 2.5493zm8.7556 1.528c-.3182 1.0915.0567 2.2114.8535 2.5494.797.338 1.6705-.252 1.9888-1.3434.318-1.091-.057-2.211-.854-2.549-.7967-.338-1.6702.252-1.9883 1.343zM121.6684 208.9235c-.841.6782-.6896 2.0478.338 3.0535 1.0275 1.0056 2.5478 1.2723 3.3888.594.841-.6777.6892-2.0476-.3385-3.0533-1.0276-1.0056-2.5476-1.272-3.3883-.594zm-6.3367 1.8734c.07.0127.1368.0244.1843.0423 1.0055.3755 2.7238.3884 4.2577-.8136l.0586-.0467c1.4914-1.2024 1.6773-2.6768 1.3538-3.656-.0108-.0336-.0135-.0865-.0163-.1427-.0028-.0658-.007-.1322-.0194-.198-.1305-.6874-.4707-1.3057-.958-1.7407-.517-.4618-1.139-.6662-1.75-.5764-.2467.0365-.4606.127-.6367.2692-.3634.293-.5098.7437-.6796 1.2657-.1078.3325-.219.6756-.394 1.0063-.022.0347-.1368.153-.348.3233-.2512.2025-.452.3282-.5027.3472-.385.1135-.7708.1667-1.1437.2176-.572.0783-1.1123.1524-1.4784.4477-.1573.1268-.272.2867-.3413.4754-.383 1.041.5913 2.2642 2.1715 2.7268.0792.0232.161.0386.242.053zm3.0934.7414c-.8405.678-.689 2.0476.3386 3.0534 1.0275 1.0056 2.5478 1.272 3.3886.5944.841-.6784.689-2.0482-.3384-3.054-1.0276-1.0055-2.5474-1.272-3.3887-.5937zm-1.5477 2.956c.674-.5434.5652-1.5918-.2473-2.387-.8122-.7947-1.9766-.992-2.6504-.4488-.6737.5433-.5654 1.5922.2468 2.387.8126.7952 1.9768.9923 2.651.449zm5.4755-7.0012c.8126.795 1.977.9924 2.6508.4492.6736-.5433.5652-1.592-.2472-2.387-.8122-.795-1.9767-.9923-2.6505-.449-.674.5434-.5652 1.592.2468 2.3868zM110.9693 231.2112c-.2807 1.0434.6483 2.061 2.071 2.269 1.4226.208 2.8084-.4717 3.089-1.515.2805-1.043-.6488-2.0608-2.0715-2.2688-1.4227-.2078-2.808.4717-3.0886 1.5148zm-4.019 5.245c.0643-.0308.125-.0607.1738-.0742 1.034-.2886 2.4306-1.2897 2.9628-3.1646l.02-.0722c.4973-1.8497-.2205-3.151-1.0585-3.752-.0286-.0207-.062-.062-.097-.1056-.041-.0517-.0836-.103-.1326-.1487-.5102-.479-1.1493-.7786-1.7992-.843-.69-.0692-1.313.1317-1.754.564-.1778.1748-.2973.374-.3562.5927-.1212.4507.0258.9012.196 1.4232.1088.3318.2208.6748.274 1.045.0025.0412-.0205.2043-.091.4664-.0837.3117-.172.5314-.2018.5768-.2442.3182-.525.588-.7964.849-.4162.4003-.809.778-.9313 1.2325-.0523.195-.051.3916.004.585.3034 1.0667 1.811 1.482 3.3607.9256.078-.028.1532-.0638.227-.1zm2.937-1.2218c-.2805 1.0427.6483 2.0608 2.0712 2.2687 1.4225.208 2.8085-.4717 3.089-1.5146.2806-1.0434-.6488-2.0612-2.0715-2.2693-1.4228-.2077-2.808.4718-3.0888 1.5152zm.4892 3.3006c.225-.8362-.4803-1.6194-1.6052-1.7838-1.1245-.1645-2.1818.3617-2.4067 1.1975-.2246.8358.4804 1.6197 1.6048 1.7842 1.125.1643 2.1823-.3618 2.407-1.198zm.3038-8.883c1.125.1644 2.1823-.3616 2.407-1.1975.225-.8358-.4803-1.6196-1.605-1.784-1.1246-.1644-2.182.362-2.4067 1.1977-.225.836.4803 1.6195 1.6046 1.7838zM137.9842 228.3492c-.5356.9384.1055 2.1583 1.429 2.7196 1.324.5612 2.8365.2548 3.372-.6837.5354-.938-.1057-2.158-1.4295-2.7192-1.324-.5613-2.8362-.2546-3.3715.6836zm-5.2158 4.0568c.07-.0137.1363-.0267.187-.028 1.073-.0172 2.6778-.6322 3.6672-2.3112l.0374-.0648c.9497-1.664.5846-3.1043-.074-3.898-.0223-.0273-.044-.0755-.067-.1267-.0268-.0605-.055-.1208-.0906-.1774-.3723-.5926-.9147-1.044-1.5273-1.2713-.6496-.2412-1.3034-.2046-1.8394.102-.2164.124-.3825.2863-.4947.483-.2314.4055-.2032.8784-.1706 1.4265.021.3486.0425.7085.0003 1.0804-.008.0405-.0716.1924-.206.428-.16.2803-.3012.4703-.3413.507-.317.246-.657.436-.9855.6196-.5042.2818-.98.548-1.2132.9565-.1.1754-.1484.366-.144.567.0233 1.1088 1.3768 1.892 3.0167 1.7462.0823-.0072.1642-.023.245-.0393zm3.1506-.4387c-.5353.938.1057 2.158 1.4294 2.7194 1.3237.5612 2.8364.2545 3.3717-.6834.5358-.9383-.1056-2.1582-1.4293-2.7195-1.3237-.5614-2.836-.2547-3.3717.6836zm-.3623 3.3172c.4293-.752-.0547-1.6883-1.1013-2.132-1.046-.4437-2.2022-.2025-2.6314.5488-.429.7518.0546 1.6887 1.1008 2.1323 1.0466.444 2.2027.2026 2.632-.549zm2.5428-8.5167c1.0466.444 2.2027.2026 2.6318-.549.429-.7517-.0547-1.6885-1.1013-2.1324-1.046-.4436-2.2022-.2023-2.6312.55-.429.7517.0547 1.6883 1.101 2.132zM65.8543 213.815c-1.0633.1918-1.587 1.4664-1.1675 2.8417.4193 1.3753 1.6254 2.338 2.6886 2.1465 1.063-.1917 1.587-1.4666 1.1673-2.842-.4192-1.3752-1.6253-2.3378-2.6883-2.1462zm-6.4587-1.3947c.0554.0448.1082.087.1414.1253.7023.812 2.204 1.6473 4.1263 1.3282l.074-.0132c1.885-.34 2.7553-1.5445 2.941-2.559.0066-.0348.0297-.0822.054-.1328.0292-.059.0575-.1195.0778-.1832.2155-.666.2135-1.3717-.0056-1.987-.232-.6533-.68-1.131-1.259-1.345-.2342-.0865-.4653-.1095-.688-.0695-.4595.083-.804.4083-1.2034.785-.254.24-.516.4877-.8282.694-.036.02-.1933.0687-.4604.1168-.3176.0574-.554.0712-.6077.064-.392-.0853-.756-.224-1.108-.358-.5394-.2055-1.0488-.3996-1.512-.316-.1986.0358-.3758.121-.5272.2534-.835.7297-.567 2.2703.5978 3.434.0584.0585.123.1112.1873.1628zm2.359 2.134c-1.063.1917-1.587 1.4663-1.1674 2.8416.4193 1.3753 1.6256 2.3382 2.6884 2.1466 1.0635-.1918 1.587-1.4666 1.1676-2.842-.4192-1.3753-1.625-2.338-2.6886-2.146zm-2.776 1.8517c.852-.1537 1.2592-1.1257.9278-2.2132-.3314-1.087-1.2587-1.8185-2.1105-1.665-.8517.1537-1.2597 1.126-.9282 2.213.3316 1.0873 1.2587 1.8188 2.111 1.665zm8.1623-3.5177c.3315 1.0874 1.2586 1.819 2.1104 1.6652.852-.1535 1.2596-1.1258.928-2.213-.3314-1.0872-1.2587-1.8186-2.1104-1.665-.852.1535-1.2595 1.1257-.928 2.2128zM64.916 184.843c-.5655.9207.036 2.1603 1.3412 2.7637 1.305.6036 2.8267.3455 3.392-.5752.5653-.9205-.0366-2.1604-1.3417-2.7636-1.3052-.6037-2.8265-.3454-3.3917.575zm-5.343 3.8876c.0702-.0117.137-.0227.1875-.0217 1.0733.0167 2.6968-.5465 3.7395-2.193l.0395-.0635c1.0025-1.6325.6837-3.084.051-3.8984-.0216-.0278-.0418-.0768-.063-.1287-.025-.0612-.051-.1223-.085-.18-.3533-.604-.881-1.0727-1.4857-1.3193-.642-.2622-1.2963-.2464-1.8417.043-.2203.117-.3916.2738-.51.4668-.2442.3977-.231.8715-.2163 1.4203.01.3492.02.7098-.034 1.08-.0094.04-.0778.19-.22.4213-.1686.275-.3157.4605-.357.4956-.3248.2357-.6707.4146-1.005.588-.5126.2655-.9968.516-1.243.917-.1056.1722-.16.361-.1622.562-.0123 1.109 1.3156 1.9353 2.9594 1.842.0823-.0047.1646-.0177.246-.0315zm3.163-.3375c-.565.9206.0366 2.1603 1.3416 2.7637 1.305.6034 2.8268.3452 3.392-.575.5652-.921-.037-2.1607-1.3418-2.7642-1.3052-.6033-2.8265-.3453-3.392.5755zm-.4683 3.304c.453-.738-.0007-1.6893-1.0326-2.1663-1.0313-.477-2.1944-.273-2.6475.4646-.4528.7376.0008 1.6896 1.032 2.1665 1.032.477 2.1952.2728 2.648-.465zm2.814-8.431c1.032.477 2.195.2728 2.648-.4645.4528-.7378-.0006-1.6895-1.0325-2.1666-1.0316-.477-2.1947-.2728-2.6476.465-.453.7375.0006 1.689 1.032 2.166zM147.2175 247.932c-.5563.9264.0576 2.16 1.3686 2.7506 1.311.5904 2.83.3174 3.3864-.6088.5558-.926-.058-2.16-1.369-2.7505-1.3113-.5905-2.83-.3173-3.386.6087zm-5.3043 3.9404c.0703-.0117.1368-.0237.1875-.0237 1.0734.0063 2.691-.5727 3.7175-2.2297l.039-.064c.9863-1.6422.6532-3.0903.0123-3.8985-.022-.0277-.0425-.0765-.0643-.128-.0255-.061-.0523-.122-.0867-.1793-.3593-.6006-.8915-1.064-1.4987-1.3046-.6446-.2556-1.2988-.2335-1.8414.061-.219.1193-.3888.278-.5053.472-.2402.4003-.2226.8738-.2022 1.4224.0133.349.027.7095-.0235 1.0803-.0088.04-.0757.1906-.2155.4233-.166.2766-.3112.4635-.3522.499-.3224.239-.6664.4214-.999.598-.5102.2706-.9917.526-1.2338.9294-.104.1732-.1566.3626-.157.5635-.001 1.109 1.335 1.9223 2.9776 1.8127.0824-.0054.1646-.0194.2458-.0338zm3.1596-.3687c-.556.9257.0577 2.1596 1.3688 2.7502 1.311.5903 2.83.3172 3.386-.6087.5562-.9264-.058-2.1602-1.3688-2.7507-1.311-.5905-2.8298-.3174-3.386.609zm-.4356 3.308c.4457-.7422-.0174-1.689-1.054-2.1558-1.036-.4668-2.197-.2512-2.6427.491-.4455.742.017 1.6893 1.0532 2.156 1.0367.4668 2.1978.2512 2.6436-.4912zm2.7306-8.458c1.0366.4668 2.1976.2512 2.6432-.491.4457-.742-.017-1.689-1.0537-2.156-1.036-.4666-2.1973-.251-2.643.491-.4455.7422.0174 1.6892 1.0536 2.156zM169.841 234.676c-.1154 1.0742.96 1.9358 2.3977 1.9207 1.4378-.015 2.7014-.901 2.817-1.9752.1155-1.074-.9602-1.9356-2.398-1.9205-1.438.015-2.7013.901-2.8167 1.975zm-3.1576 5.8043c.0586-.0405.114-.0793.1602-.1002.9766-.4453 2.201-1.6508 2.4364-3.5853l.0084-.0745c.205-1.9046-.7058-3.079-1.6268-3.543-.0315-.016-.0707-.0514-.1124-.0892-.0485-.0446-.0984-.0888-.1537-.1264-.5783-.394-1.256-.591-1.908-.554-.6924.0386-1.2767.3336-1.6454.829-.1488.2004-.236.4156-.26.6406-.05.4643.165.8865.414 1.376.159.311.3225.6324.4327.99.0088.04.0113.205-.0177.4748-.0345.3208-.0878.5516-.11.601-.1922.3523-.4277.6624-.6553.9623-.3493.4598-.679.894-.7292 1.3618-.0216.201.0103.395.0946.5774.465 1.007 2.0188 1.1835 3.4636.394.0723-.04.141-.0868.2088-.134zm2.712-1.6623c-.1153 1.0738.96 1.9356 2.398 1.9205 1.4378-.015 2.7014-.9012 2.817-1.975.1154-1.0743-.9603-1.936-2.398-1.9208-1.4378.015-2.7013.901-2.8168 1.9754zm.995 3.1852c.0925-.861-.7255-1.5255-1.8624-1.5137-1.1362.0118-2.0994.6953-2.1918 1.556-.0926.8606.7255 1.5257 1.8617 1.514 1.1367-.012 2.0996-.6954 2.1922-1.5563zm-1.0763-8.823c1.137-.0117 2.1-.6952 2.1925-1.5558.0925-.8607-.7255-1.5257-1.8623-1.5138-1.1362.0118-2.0993.6955-2.192 1.556-.0924.8605.7257 1.5255 1.862 1.5136zM95.5283 200.7843c-.6337.8752-.1278 2.157 1.1277 2.8578 1.2554.7008 2.7925.559 3.426-.316.6334-.8748.1275-2.157-1.128-2.8577-1.2557-.7007-2.792-.5588-3.4255.316zm-5.6228 3.4707c.071-.0058.1384-.0124.1888-.0076 1.069.0985 2.7305-.3398 3.8952-1.9024l.0442-.0604c1.1235-1.5516.9158-3.023.347-3.883-.0197-.0296-.036-.08-.0533-.1333-.02-.0628-.0414-.1258-.071-.186-.3062-.6293-.7966-1.1366-1.381-1.4283-.6204-.31-1.274-.344-1.84-.097-.2284.0998-.411.2433-.5438.4267-.2738.3782-.2967.8514-.3235 1.4-.0166.3487-.034.709-.116 1.074-.0123.0394-.092.1836-.251.4035-.1892.2613-.35.4352-.394.467-.3416.2104-.7002.3626-1.0466.51-.5315.2256-1.0332.439-1.3092.82-.1184.1635-.187.348-.2045.5482-.0963 1.105 1.165 2.0295 2.811 2.0614.0826.0016.1655-.005.2478-.0124zm3.1796-.0964c-.6333.8748-.1275 2.1568 1.128 2.8576 1.2553.7007 2.7923.559 3.4256-.3158.6337-.8752.1276-2.157-1.1278-2.8578-1.2555-.701-2.792-.5592-3.4257.316zm-.7178 3.2588c.5078-.7014.1277-1.6844-.865-2.2385-.9922-.554-2.1675-.439-2.6752.2622-.5075.701-.1277 1.6846.8647 2.2387.9925.554 2.1678.4388 2.6756-.2625zm3.4463-8.193c.9927.554 2.168.439 2.6755-.262.5077-.7012.1278-1.6847-.865-2.2388-.992-.5538-2.1675-.4385-2.675.2625-.5078.7012-.1278 1.6846.8644 2.2384zM188.4394 250.171c-.1154 1.0742.96 1.9358 2.3978 1.9207 1.4378-.015 2.7014-.901 2.817-1.9752.1155-1.074-.9602-1.9355-2.398-1.9204-1.438.015-2.7013.901-2.8167 1.975zm-3.1575 5.8043c.0585-.0405.114-.0793.16-.1002.9767-.4453 2.2012-1.6508 2.4365-3.5853l.0084-.0745c.2048-1.9046-.706-3.0788-1.627-3.5428-.0314-.016-.0707-.0515-.1123-.0894-.0485-.0446-.0984-.0888-.1538-.1263-.5783-.3942-1.256-.591-1.908-.5542-.6924.0388-1.2767.3337-1.6454.8293-.149.2002-.236.4154-.2602.6405-.05.4643.165.8865.414 1.3758.159.3113.3226.6327.4328.9903.0088.04.0113.205-.0177.4747-.0346.3208-.0878.5516-.11.601-.1922.3523-.4278.6624-.6553.9623-.3493.4598-.679.894-.7292 1.3618-.0216.201.0103.395.0946.5774.465 1.007 2.0187 1.1836 3.4635.394.0724-.04.1412-.0868.209-.134zm2.712-1.6623c-.1154 1.0738.96 1.9356 2.3978 1.9205 1.438-.015 2.7015-.9012 2.817-1.975.1155-1.0743-.9602-1.9358-2.398-1.9207-1.4377.015-2.7012.901-2.8167 1.9753zm.9948 3.1852c.0926-.861-.7254-1.5255-1.8623-1.5136-1.1362.0117-2.0994.6953-2.1918 1.556-.0926.8605.7255 1.5257 1.8617 1.514 1.1368-.012 2.0997-.6954 2.1923-1.5564zm-1.0762-8.8228c1.1368-.012 2.1-.6954 2.1924-1.556.0925-.8607-.7255-1.5256-1.8623-1.5138-1.1362.0118-2.0993.6955-2.192 1.556-.0924.8606.7257 1.5255 1.862 1.5137zM209.0867 236.6177c-.1154 1.0742.96 1.9358 2.3977 1.9208 1.438-.015 2.7015-.901 2.817-1.9753.1155-1.074-.96-1.9355-2.398-1.9204-1.438.015-2.7012.901-2.8166 1.975zm-3.1575 5.8043c.0586-.0404.114-.0792.16-.1002.9767-.4453 2.2013-1.6508 2.4366-3.5853l.0084-.0746c.2048-1.9046-.7058-3.079-1.6268-3.543-.0315-.016-.0708-.0514-.1124-.0892-.0486-.0447-.0984-.0888-.1538-.1264-.5783-.394-1.256-.591-1.908-.554-.6924.0386-1.2767.3336-1.6453.829-.149.2003-.236.4156-.2603.6406-.05.4643.165.8865.414 1.376.159.311.3226.6324.4327.99.009.04.0114.205-.0177.4748-.0345.3208-.0877.5515-.11.601-.192.3522-.4277.6623-.6553.9623-.3492.4598-.679.894-.729 1.362-.0217.2007.0102.3947.0945.5772.4647 1.007 2.0186 1.1835 3.4633.3938.0724-.0398.1412-.0867.209-.134zm2.712-1.6622c-.1154 1.0737.96 1.9355 2.398 1.9205 1.4377-.015 2.7014-.9012 2.817-1.975.1154-1.0743-.9603-1.936-2.398-1.9208-1.4378.015-2.7013.901-2.8168 1.9754zm.995 3.1852c.0925-.861-.7256-1.5256-1.8624-1.5137-1.1362.0118-2.0994.6953-2.192 1.556-.0924.8605.7257 1.5257 1.862 1.514 1.1366-.012 2.0996-.6954 2.1922-1.5563zm-1.0763-8.823c1.1367-.0118 2.0998-.6953 2.1922-1.556.0926-.8605-.7255-1.5255-1.8622-1.5136-1.1362.0118-2.0994.6955-2.192 1.556-.0924.8605.7256 1.5255 1.8618 1.5136zM229.0764 253.8633c-.1153 1.0742.96 1.9358 2.3978 1.9207 1.4378-.015 2.7014-.901 2.817-1.9752.1155-1.074-.9602-1.9355-2.398-1.9204-1.438.015-2.7012.901-2.8167 1.9748zm-3.1575 5.8043c.0585-.0404.114-.0792.16-.1002.9767-.4453 2.2013-1.6508 2.4366-3.5854l.0083-.0745c.2048-1.9046-.706-3.0788-1.627-3.5428-.0314-.016-.0706-.0515-.1122-.0893-.0486-.0447-.0985-.0888-.1538-.1264-.5783-.394-1.256-.591-1.908-.554-.6924.0386-1.2767.3335-1.6454.829-.1488.2003-.236.4155-.2602.6406-.05.4643.165.8865.414 1.3758.159.3113.3226.6326.4328.9903.009.04.0113.2048-.0177.4746-.0345.321-.0878.5516-.11.601-.1922.3523-.4277.6624-.6553.9623-.3493.4598-.679.894-.7292 1.362-.0216.2006.0103.3946.0946.5772.465 1.007 2.0188 1.1835 3.4635.3938.0724-.0398.1412-.0867.209-.134zm2.712-1.6622c-.1154 1.0737.96 1.9355 2.3978 1.9204 1.438-.015 2.7015-.901 2.817-1.975.1155-1.0743-.9602-1.9358-2.398-1.9207-1.4376.015-2.7012.9012-2.8166 1.9755zm.995 3.185c.0924-.861-.7256-1.5254-1.8624-1.5135-1.1363.0117-2.0995.6952-2.192 1.5558-.0925.8606.7256 1.5258 1.862 1.514 1.1366-.0118 2.0996-.6953 2.1922-1.5562zm-1.0764-8.8227c1.1368-.012 2.1-.6954 2.1924-1.556.0925-.8606-.7255-1.5256-1.8622-1.5137-1.1363.0117-2.0994.6954-2.192 1.556-.0925.8605.7256 1.5255 1.8618 1.5136zM250.855 235.9834c-.1153 1.0742.96 1.9358 2.3978 1.9207 1.438-.015 2.7014-.9008 2.817-1.975.1155-1.074-.96-1.9356-2.398-1.9205-1.438.015-2.7012.901-2.8166 1.9748zm-3.1574 5.8043c.0586-.0405.114-.0792.16-.1002.9767-.4454 2.2013-1.651 2.4366-3.5854l.0084-.0744c.2048-1.9046-.706-3.0788-1.627-3.5428-.0313-.016-.0706-.0515-.1122-.0894-.0486-.0446-.0985-.0887-.1538-.1263-.5783-.394-1.256-.5908-1.908-.554-.6924.0387-1.2767.3336-1.6453.8292-.149.2002-.236.4154-.2602.6405-.05.4643.1652.8865.414 1.3758.159.3112.3226.6326.4328.9902.009.04.0114.205-.0177.4747-.0344.321-.0876.5516-.11.601-.192.3523-.4276.6624-.6552.9623-.3492.4598-.679.894-.729 1.3618-.0218.2008.0102.3948.0945.5774.4648 1.007 2.0187 1.1834 3.4634.3937.0724-.0398.1412-.0867.209-.134zm2.712-1.6622c-.1154 1.0737.96 1.9355 2.398 1.9204 1.4377-.0152 2.7013-.9012 2.817-1.975.1154-1.0744-.9603-1.936-2.3982-1.9208-1.4376.015-2.701.901-2.8166 1.9753zm.995 3.185c.0925-.861-.7256-1.5254-1.8624-1.5135-1.1363.0118-2.0994.6953-2.192 1.556-.0925.8605.7256 1.5257 1.862 1.514 1.1366-.012 2.0996-.6954 2.1922-1.5564zm-1.0764-8.8227c1.137-.012 2.1-.6954 2.1924-1.556.0926-.8606-.7255-1.5256-1.8622-1.5137-1.1363.0118-2.0994.6955-2.192 1.556-.0925.8606.7256 1.5255 1.8618 1.5137zM290.189 235.1857c-.1153 1.0742.96 1.9358 2.398 1.9208 1.4377-.015 2.7013-.901 2.817-1.9753.1153-1.074-.9603-1.9355-2.398-1.9204-1.438.015-2.7013.901-2.8168 1.975zm-3.1574 5.8043c.0586-.0404.114-.0792.1602-.1002.9766-.4453 2.2012-1.6508 2.4364-3.5853l.0084-.0746c.205-1.9047-.7058-3.079-1.6268-3.543-.0315-.016-.0707-.0514-.1123-.0892-.0486-.0447-.0985-.0888-.1538-.1264-.5783-.394-1.256-.591-1.9082-.554-.6922.0386-1.2766.3336-1.6453.829-.1487.2003-.236.4156-.2602.6406-.0498.4643.1652.8865.4142 1.376.159.311.3225.6324.4327.99.0087.04.0112.205-.0178.4748-.0345.3208-.0878.5515-.11.601-.1922.3522-.4277.6623-.6553.9623-.3494.4598-.679.894-.7294 1.362-.0215.2007.0104.3947.0947.5772.465 1.007 2.0188 1.1835 3.4635.3938.0723-.0398.141-.0867.2088-.134zm2.712-1.6622c-.1153 1.0737.96 1.9355 2.398 1.9205 1.4378-.015 2.7014-.9012 2.817-1.975.1154-1.0743-.9603-1.936-2.398-1.9208-1.438.015-2.7013.901-2.8167 1.9754zm.995 3.1852c.0925-.861-.7255-1.5256-1.8624-1.5137-1.1362.0118-2.0994.6953-2.1918 1.556-.0926.8605.7255 1.5257 1.8618 1.514 1.1367-.012 2.0996-.6954 2.1922-1.5563zm-1.0763-8.823c1.1368-.0118 2.1-.6953 2.1924-1.556.0925-.8605-.7255-1.5255-1.8623-1.5136-1.1363.0118-2.0993.6955-2.192 1.556-.0924.8605.7255 1.5255 1.862 1.5136zM265.8513 253.6013c-.1155 1.0743.96 1.936 2.3977 1.9208 1.438-.015 2.7014-.9008 2.817-1.975.1154-1.074-.96-1.9356-2.398-1.9205-1.438.015-2.7012.901-2.8166 1.9748zm-3.1575 5.8044c.0586-.0405.114-.0793.16-.1002.9767-.4454 2.2013-1.651 2.4366-3.5854l.0084-.0744c.2048-1.9046-.706-3.0788-1.627-3.5428-.0313-.016-.0706-.0515-.1122-.0894-.0486-.0446-.0985-.0888-.1538-.1263-.5783-.394-1.256-.5908-1.9082-.554-.6922.0387-1.2766.3336-1.6452.8292-.1487.2002-.236.4154-.2602.6405-.05.4643.1652.8865.414 1.3758.159.3112.3226.6326.4328.9902.009.04.0114.205-.0177.4747-.0345.3208-.0877.5516-.11.601-.192.3523-.4277.6624-.6553.9623-.3492.4598-.679.894-.7292 1.362-.0216.2006.0104.3946.0947.577.4648 1.0072 2.0187 1.1837 3.4634.394.0723-.0398.141-.0867.2088-.134zm2.712-1.6622c-.1154 1.0737.96 1.9355 2.398 1.9204 1.4377-.0152 2.7013-.9013 2.817-1.975.1154-1.0744-.9603-1.936-2.3982-1.9208-1.4378.015-2.701.901-2.8166 1.9753zm.995 3.185c.0925-.861-.7256-1.5254-1.8624-1.5135-1.1363.0117-2.0994.6953-2.192 1.556-.0924.8605.7257 1.5257 1.862 1.514 1.1366-.012 2.0996-.6954 2.1922-1.5564zm-1.0764-8.8227c1.137-.012 2.1-.6954 2.1924-1.556.0926-.8606-.7255-1.5256-1.8622-1.5138-1.1364.0118-2.0994.6955-2.192 1.556-.0925.8606.7254 1.5256 1.8618 1.5137zM331.6628 236.3123c-.1155 1.0743.96 1.936 2.3978 1.9208 1.4378-.015 2.7014-.9008 2.817-1.975.1154-1.074-.9602-1.9356-2.398-1.9205-1.438.0148-2.7013.901-2.8167 1.9748zm-3.1575 5.8044c.0586-.0405.114-.0793.1602-.1002.9766-.4454 2.201-1.651 2.4364-3.5854l.0083-.0744c.2048-1.9046-.7058-3.0788-1.6268-3.5428-.0315-.016-.0708-.0515-.1124-.0894-.0484-.0446-.0983-.0888-.1537-.1264-.5783-.394-1.256-.5908-1.908-.554-.6923.0386-1.2767.3336-1.6454.8292-.1488.2002-.236.4154-.2603.6405-.0498.4642.1652.8865.4142 1.3758.1587.3112.3224.6326.4326.9902.0088.04.0113.205-.0177.4747-.0347.3208-.088.5516-.1102.601-.192.3523-.4277.6624-.6553.9623-.3492.4598-.679.894-.7292 1.3618-.0215.2008.0104.3948.0947.5773.465 1.007 2.0187 1.1836 3.4635.394.0723-.04.141-.0868.2088-.134zm2.712-1.6623c-.1154 1.0738.96 1.9356 2.398 1.9205 1.4378-.0152 2.7014-.9013 2.817-1.975.1154-1.0744-.9603-1.936-2.398-1.921-1.438.0152-2.7013.9013-2.8168 1.9755zm.995 3.1852c.0925-.861-.7255-1.5255-1.8624-1.5136-1.1363.0117-2.0995.6952-2.192 1.556-.0925.8605.7256 1.5257 1.8618 1.514 1.1368-.012 2.0997-.6954 2.1923-1.5564zm-1.0763-8.8228c1.1368-.012 2.1-.6954 2.1923-1.556.0926-.8607-.7254-1.5256-1.8622-1.5138-1.1362.0118-2.0992.6955-2.192 1.556-.0923.8605.7256 1.5256 1.862 1.5137zM307.1017 250.691c-.1155 1.0744.96 1.936 2.3977 1.921 1.438-.0152 2.7014-.901 2.817-1.9753.1154-1.074-.96-1.9355-2.398-1.9204-1.438.015-2.7012.901-2.8166 1.9748zm-3.1575 5.8045c.0586-.0405.114-.0792.16-.1002.9767-.4454 2.2013-1.651 2.4366-3.5854l.0084-.0746c.2048-1.9046-.706-3.0788-1.627-3.5428-.0313-.016-.0706-.0515-.1122-.0894-.0486-.0446-.0985-.0887-.1538-.1263-.5783-.3943-1.256-.591-1.908-.5542-.6924.0387-1.2768.3336-1.6454.8292-.1487.2002-.236.4154-.2602.6405-.05.4643.1652.8865.414 1.3758.159.3112.3226.6326.4328.9902.009.04.0114.205-.0177.4747-.0345.3208-.0877.5516-.11.601-.192.3523-.4277.6624-.6553.9623-.3492.4598-.679.894-.7292 1.362-.0216.2006.0104.3946.0947.577.4647 1.0072 2.0186 1.1837 3.4633.394.0724-.0398.1412-.0867.209-.134zm2.712-1.6622c-.1154 1.0737.96 1.9355 2.398 1.9204 1.4377-.015 2.7013-.901 2.817-1.975.1154-1.0743-.9603-1.9358-2.3982-1.9207-1.4378.015-2.701.901-2.8166 1.9753zm.995 3.185c.0925-.861-.7256-1.5254-1.8624-1.5135-1.1362.0118-2.0994.6953-2.192 1.556-.0924.8605.7257 1.5257 1.862 1.514 1.1366-.012 2.0996-.6954 2.1922-1.5564zm-1.0764-8.8227c1.137-.012 2.1-.6954 2.1924-1.556.0926-.8606-.7255-1.5256-1.8622-1.5138-1.1363.0118-2.0994.6955-2.192 1.556-.0924.8606.7254 1.5256 1.8618 1.5137zM54.282 59.7113c-.5615-.923-1.939-.953-3.0714-.0668-1.1322.8862-1.5966 2.358-1.035 3.281.5613.9228 1.9392.9527 3.0714.0665 1.1324-.8862 1.5965-2.3578 1.035-3.2806zm-1.023-6.528c-.022.0678-.042.1322-.066.177-.5046.9474-.744 2.649.246 4.328l.0385.064c.9956 1.6367 2.4326 2.015 3.446 1.8233.0346-.0064.0875-.002.1433.0026.0656.006.132.0106.1988.0067.6988-.039 1.3565-.2947 1.8518-.7206.526-.4517.8105-1.0413.8018-1.6587-.0036-.2494-.0652-.4733-.183-.6667-.2425-.3988-.67-.6032-1.1652-.8403-.3153-.1504-.6407-.306-.9455-.523-.0315-.0264-.1337-.1557-.2747-.3875-.1677-.2757-.2658-.4913-.278-.544-.062-.3965-.0634-.786-.065-1.1624-.0024-.5775-.0048-1.1226-.2493-1.5246-.105-.1725-.2483-.307-.4262-.4007-.9814-.5166-2.3223.288-2.989 1.7936-.0334.0757-.0594.155-.0843.2335zm-1.142 2.9688c-.5614-.9225-1.939-.9527-3.0714-.0664-1.1322.8862-1.5966 2.358-1.0353 3.2808.5616.923 1.9395.953 3.0717.0667 1.1324-.8862 1.5965-2.358 1.035-3.281zm-2.7267-1.9235c.45.7398 1.5035.77 2.3988.0692.895-.7005 1.2438-1.8287.794-2.5682-.45-.7393-1.504-.77-2.3986-.0697-.8952.7006-1.244 1.829-.794 2.5686zM55.61 60.578c-.8955.7008-1.2443 1.829-.7945 2.5685.45.7395 1.5037.77 2.399.0693.8947-.7005 1.2436-1.8288.7937-2.5683-.4498-.7395-1.5036-.77-2.3984-.0695zM53.282 88.7113c-.5615-.923-1.939-.953-3.0714-.0668-1.1322.8862-1.5966 2.358-1.035 3.281.5613.9228 1.9392.9527 3.0714.0665 1.1324-.8862 1.5965-2.3578 1.035-3.2806zm-1.023-6.528c-.022.0678-.042.1322-.066.177-.5046.9474-.744 2.649.246 4.328l.0385.064c.9956 1.6367 2.4326 2.015 3.446 1.8233.0346-.0064.0875-.002.1433.0026.0656.006.132.0106.1988.0067.6988-.039 1.3565-.2947 1.8518-.7206.526-.4517.8105-1.0413.8018-1.6587-.0036-.2494-.0652-.4733-.183-.6667-.2425-.3988-.67-.6032-1.1652-.8403-.3153-.1504-.6407-.306-.9455-.523-.0315-.0264-.1337-.1557-.2747-.3875-.1677-.2757-.2658-.4913-.278-.544-.062-.3965-.0634-.786-.065-1.1624-.0024-.5775-.0048-1.1226-.2493-1.5246-.105-.1725-.2483-.307-.4262-.4007-.9814-.5166-2.3223.288-2.989 1.7936-.0334.0757-.0594.155-.0843.2335zm-1.142 2.9688c-.5614-.9225-1.939-.9527-3.0714-.0664-1.1322.8862-1.5966 2.358-1.0353 3.2808.5616.923 1.9395.953 3.0717.0667 1.1324-.8862 1.5965-2.358 1.035-3.281zm-2.7267-1.9235c.45.7398 1.5035.77 2.3988.0692.895-.7005 1.2438-1.8287.794-2.5682-.45-.7393-1.504-.77-2.3986-.0697-.8952.7006-1.244 1.829-.794 2.5686zM54.61 89.578c-.8955.7008-1.2443 1.829-.7945 2.5685.45.7395 1.5037.77 2.399.0693.8947-.7005 1.2436-1.8288.7937-2.5683-.4498-.7395-1.5036-.77-2.3984-.0695zM363.6628 251.3123c-.1155 1.0743.96 1.936 2.3978 1.9208 1.4378-.015 2.7014-.9008 2.817-1.975.1154-1.074-.9602-1.9356-2.398-1.9205-1.438.0148-2.7013.901-2.8167 1.9748zm-3.1575 5.8044c.0586-.0405.114-.0793.1602-.1002.9766-.4454 2.201-1.651 2.4364-3.5854l.0083-.0744c.2048-1.9046-.7058-3.0788-1.6268-3.5428-.0315-.016-.0708-.0515-.1124-.0894-.0484-.0446-.0983-.0888-.1537-.1264-.5783-.394-1.256-.5908-1.908-.554-.6923.0386-1.2767.3336-1.6454.8292-.1488.2002-.236.4154-.2603.6405-.0498.4642.1652.8865.4142 1.3758.1587.3112.3224.6326.4326.9902.0088.04.0113.205-.0177.4747-.0347.3208-.088.5516-.1102.601-.192.3523-.4277.6624-.6553.9623-.3492.4598-.679.894-.7292 1.3618-.0215.2008.0104.3948.0947.5773.465 1.007 2.0187 1.1836 3.4635.394.0723-.04.141-.0868.2088-.134zm2.712-1.6623c-.1154 1.0738.96 1.9356 2.398 1.9205 1.4378-.0152 2.7014-.9013 2.817-1.975.1154-1.0744-.9603-1.936-2.398-1.921-1.438.0152-2.7013.9013-2.8168 1.9755zm.995 3.1852c.0925-.861-.7255-1.5255-1.8624-1.5136-1.1363.0117-2.0995.6952-2.192 1.556-.0925.8605.7256 1.5257 1.8618 1.514 1.1368-.012 2.0997-.6954 2.1923-1.5564zm-1.0763-8.8228c1.1368-.012 2.1-.6954 2.1923-1.556.0926-.8607-.7254-1.5256-1.8622-1.5138-1.1362.0118-2.0992.6955-2.192 1.556-.0923.8605.7256 1.5256 1.862 1.5137z"/>
</svg>
