

<svg xmlns="http://www.w3.org/2000/svg" viewBox="0 0 847.0837 660.3433" shape-rendering="auto">

  <defs>
    <style>
      #cat_tip {
        cursor: pointer;
      }

    </style>
  </defs>

  <g transform="translate(43.541774,-127.19053)">
    <path fill="#fff" stroke="#000" stroke-width="1.8" stroke-dashoffset="1.08" d="M404.562 336.8363l-431.7285 116.744c-.4447 62.103 1.186 132.9353 2.0527 197.7052l9.078.2403-1.537-184.6836-4.252-5.875 95.0255 88.8847-90.043-83.463c-.7736-.483.3966 13.047-.377 17.537l91.508 82.406 1.8983 188.852 9.0625.525 3.332-187.609-3.4218-3.664 4.494 4.345 207.6095-55.605 207.6094-54.604-15.1504 4.514 1.0195 190.431 10.0625.613 2.5176-194.961 1.254-.332z" stroke-linecap="round" stroke-linejoin="round"/>
    <path fill="#fff" stroke="#000" stroke-width="1.8" stroke-dashoffset="1.08" d="M31.0248 528.4463c-44 25.1667 15.5 44.3333 0 0z" stroke-linecap="round" stroke-linejoin="round"/>
    <path fill="#fff" fill-rule="evenodd" stroke="#000" stroke-width=".9451" d="M474.7576 466.5342l14.4488 16.7384"/>
    <path fill="#fff" stroke="#000" stroke-width="1.814" stroke-dashoffset="1.08" d="M186.9354 358.9145c-2.5773 15.4866-5.9108 31.1628 4.064 43.506a13.5298 42.766 73.5858 0 0-24.3368 20.524 13.5298 42.766 73.5858 0 0 44.8555.8883 13.5298 42.766 73.5858 0 0 37.19-25.0637 13.5298 42.766 73.5858 0 0-39.315-2.375c-9.203-11.987-6.527-27.474-3.65-43.021l-18.807 5.542z" stroke-linecap="round" stroke-linejoin="round"/>
    <g color="#000" font-family="sans-serif" white-space="normal" shape-rendering="auto">
      <path d="M334.9102 127.1905l-377.5625 76.256c-.5964.1263-.9845.7098-.8692 1.3085l41.078 215.037c.1243.6454.7807 1.049 1.4123.8673l363.785-104.256c.527-.1507.8697-.6626.8067-1.207l-28.6503-188.002z" style="line-height:normal;text-indent:0;text-align:start;text-decoration-line:none;text-decoration-style:solid;text-decoration-color:#000000;text-transform:none;block-progression:tb;isolation:auto;mix-blend-mode:normal" overflow="visible" solid-color="#000000"/>
      <path d="M334.6602 127.546l28.6015 187.6836c.046.4005-.202.774-.5898.8848L-1.116 420.3702c-.466.134-.9406-.159-1.0332-.6348l-41.078-215.037c-.085-.4416.197-.8658.637-.959l377.25-76.1934z" style="line-height:normal;text-indent:0;text-align:start;text-decoration-line:none;text-decoration-style:solid;text-decoration-color:#000000;text-transform:none;block-progression:tb;isolation:auto;mix-blend-mode:normal" overflow="visible" solid-color="#000000"/>
      <path d="M333.5527 129.6554l-.1543.031-374.8613 75.4942L-.705 418.5438l362.2577-103.8183-28-185.0703z" style="line-height:normal;text-indent:0;text-align:start;text-decoration-line:none;text-decoration-style:solid;text-decoration-color:#000000;text-transform:none;block-progression:tb;isolation:auto;mix-blend-mode:normal" overflow="visible" solid-color="#000000"/>
      <path fill="#fff" d="M334.3027 130.0108l27.914 184.498L.5274 418.1652l-40.6386-212.75 374.414-75.4042z" style="line-height:normal;text-indent:0;text-align:start;text-decoration-line:none;text-decoration-style:solid;text-decoration-color:#000000;text-transform:none;block-progression:tb;isolation:auto;mix-blend-mode:normal" overflow="visible" solid-color="#000000"/>
    </g>
    <rect width="60.4062" height="49.5961" x="106.6993" y="534.8788" fill="#fff" stroke="#000" stroke-width="1.6608" stroke-dashoffset="1.5616" transform="matrix(0.92333344,-0.38399916,0.49428472,0.86930007,0,0)" ry="3.2415" stroke-linecap="round" stroke-linejoin="round"/>
    <path fill="none" stroke="#000" stroke-width="1.8" stroke-dashoffset="1.08" d="M382.3905 421.4583a9.6568 8.3856 2.4484 0 0-1.5834 11.765 9.6568 8.3856 2.4484 0 0 1.048.984c.179.314.396.6165.654.9026l6.885 7.634c2.151 2.384 6.237 2.711 9.163.731l4.583-3.101c2.926-1.98 3.55-5.493 1.399-7.878l-6.884-7.635c-.262-.291-.554-.551-.868-.78a9.6568 8.3856 2.4484 0 0-.833-1.107 9.6568 8.3856 2.4484 0 0-13.561-1.518z" stroke-linecap="round" stroke-linejoin="round"/>
    <rect width="197" height="51" x="24.9352" y="498.6728" fill="#fff" stroke="#000" stroke-width="1.8" stroke-dashoffset="1.08" ry="12.2014" stroke-linecap="round" transform="matrix(0.96462916,-0.26361066,0.26361068,0.96462916,0,0)"/>

    <g class="girl-in-chair">
      <rect width="17.2883" height="76.8051" x="716.1342" y="402.0413" fill="#f9f9f9" stroke="#000" stroke-width="1.4113" stroke-dashoffset="1.08" ry="5.1203" stroke-linecap="round" transform="matrix(0.99982813,0.01853956,-0.05290312,0.99859965,0,0)"/>
      <path fill="#f9f9f9" stroke="#000" stroke-width="1.8" stroke-dashoffset="1.08" d="M530.9267 400.4134c-.2392 0-.484.034-.7217.126-.951.3702-1.4185 1.4343-1.0484 2.3854l25.139 64.5884c.37.951 1.4335 1.419 2.3847 1.0488.9512-.37 1.4185-1.4343 1.0484-2.3853l-23.8153-61.1886 64.5008 1.248-26.3273 60.6c-.407.936.02 2.018.955 2.425.936.407 2.017-.021 2.423-.956l27.617-63.568c.407-.936-.02-2.017-.955-2.424-.662-.288-1.396-.157-1.913.274l-67.784-1.31c-.33-.527-.9-.844-1.505-.861zm96.645 142.8296c-.212-.006-.426-.005-.6407.006-6.8633.344-12.215 9.4647-12 20.4493l2.7422 140.3066a87.6812 41.7193 0 0 0-70.8828 40.91 87.6812 41.7193 0 0 0 87.6816 41.719 87.6812 41.7193 0 0 0 87.6797-41.719 87.6812 41.7193 0 0 0-79.6875-41.53l-2.7578-140.93c-.2082-10.642-5.5606-19.013-12.1348-19.213z" stroke-linecap="round"/>
      <path fill="#f9f9f9" stroke="#000" stroke-width="1.406" stroke-dashoffset="1.08" d="M667.1138 453.3386l62.3497 47.4662c17.393 13.2408 29.0327 34.1915 10.0456 44.5475 0 0-53.897 27.8288-80.846 42.5272-18.987 10.3558-78.489-8.8695-92.104-25.297l-51.847-62.5586c-13.614-16.427 6.552-26.54 28.402-30.371l66.418-11.643c21.851-3.831 40.19-17.914 57.583-4.673z" stroke-linecap="round"/>
      <path fill="#f9f9f9" stroke="#000" stroke-width="1.8" stroke-dashoffset="1.08" d="M707.1776 272.926l68.8472 28.33c19.2875 7.9367 31.0894 18.564 25.0328 40.5513-6.0566 21.9872-18.3087 87.1564-18.3087 87.1564-5.539 20.1077-42.045 36.4413-60.351 26.447l-67.433-36.8153c-18.306-9.9943-23.561-37.0293-15.134-56.1076l25.38-57.4578c8.427-19.0783 22.678-40.0407 41.965-32.104z" stroke-linecap="round"/>
      <path fill="#fff" fill-rule="evenodd" stroke="#000" stroke-width="1.1959" d="M644.8512 347.822c.06-2.507-10.3926 3.4658-20.2672 5.5628-3.174 19.393-23.0146 33.7487-21.2754 54.85 1.9876 24.117 7.3625 55.1503-6.764 68.1555l78.9904-1.0242c-3.1743-16.138-6.2916-72.553-4.7838-88.345 1.213-11.784-25.7565-36.77-25.9-39.198z"/>
      <path fill="#fff" fill-rule="evenodd" stroke="#000" stroke-width="1.3726" d="M632.1257 268.8546c-6.19.073-11.9744 1.7405-17.043 5.8028-3.4062 2.759-6.4257 5.9657-7.953 8.2812-5.4704 8.293-8.79 19.45-10.6818 30.2773-.477 2.726-2.412 8.851-3.115 10.318-1.458 3.041.831 4.945 4.001 4.822.383 1.61.867 3.185 1.461 4.713 3.134 8.06 7.829 13.237 13.343 16.115.689.36 1.392.684 2.105.973 4.991 2.023 10.526 2.345 16.097 1.394 12.735-2.173 25.693-10.975 33.037-21.446 3.857-5.499 6.552-13.534 7.402-21.703.644-6.195.22-12.463-1.584-17.764.203-.644.225-1.275.037-1.873-.222-.706-.655-1.373-1.174-2.016-1.037-1.287-2.423-2.502-3.242-3.713-3.752-5.548-10.367-9.505-17.66-11.842-2.949-.852-5.865-1.514-8.721-1.914-2.142-.3-4.25-.452-6.313-.428z" overflow="visible" solid-color="#000000" shape-rendering="auto" color="#000" font-family="sans-serif" white-space="normal" style="line-height:normal;text-indent:0;text-align:start;text-decoration-line:none;text-decoration-style:solid;text-decoration-color:#000000;text-transform:none;block-progression:tb;isolation:auto;mix-blend-mode:normal"/>
      <path fill="none" stroke="#000" stroke-width="1.1961" d="M618.9823 305.46c-5.096-3.1053-6.782-3.987-9.4747-4.7132-3.8164-.013-6.9062-1.136-7.954 3.6825"/>
      <path fill="none" stroke="#000" stroke-width=".9" stroke-dashoffset="1.5616" d="M617.682 312.9995c0 3.866-3.6376 5.5858-8.125 5.5858-4.4872 0-8.125-1.7198-8.125-5.5858 0-3.866 3.6378-7 8.125-7 4.4874 0 8.125 3.134 8.125 7z" stroke-linecap="round" stroke-linejoin="round"/>
      <path fill="maroon" d="M618.7302 332.5898c0 5.3802-5.5613 9.9857-11.8906 12.32-3.2848-3.3563-5.5596-7.5326-7.5198-11.8825z"/>
      <g fill="none" stroke="#000">
        <path stroke-width=".9592" stroke-dashoffset="1.5616" d="M-6173.6932-2301.357c5.551-15.3426 17.9995.181 10.656 6.6675l-19.2057 16.9638z" stroke-linecap="round" stroke-linejoin="round" transform="matrix(0.7485382,-0.6630917,0.66309162,0.7485382,6802.6697,-1926.1291)"/>
        <path stroke-width=".6052" stroke-dashoffset="1.5616" d="M-6161.121-2322.6657c-.5512-.072-1.103.6938-1.237 1.7175l-1.7802 13.5904c-.024.1812-.032.3577-.028.5263-.1835.3024-.235.601-.109.8323.084.1547.2354.26.4322.3165.1247.1705.2802.2798.4588.3032.249.033.4976-.1066.7082-.3623.045-.026.089-.054.134-.084.1272-.05.2555-.108.3833-.1772l12.055-6.5233c.908-.4914 1.426-1.2806 1.1614-1.7695-.2646-.489-1.2088-.4872-2.1168 0l-8.425 4.559 5.765-7.9097c.608-.8344.736-1.7696.287-2.097-.45-.3276-1.301.081-1.909.9147l-6.425 8.8138 1.398-10.6763c.134-1.0237-.202-1.906-.753-1.9782z" stroke-linecap="round" stroke-linejoin="round" transform="matrix(0.7485382,-0.6630917,0.66309162,0.7485382,6802.6697,-1926.1291)"/>
        <path d="M-6174.1725-2289.154l2.1213 2.1213m-2.8284-12.0208l5.1265 6.0104m-.708-12.728l2.651 2.474m2.121 6.364l2.298 2.828" transform="matrix(0.7485382,-0.6630917,0.66309162,0.7485382,6802.6697,-1926.1291)"/>
      </g>
      <g fill="none" stroke="#000">
        <path stroke-width=".9592" stroke-dashoffset="1.5616" d="M-6173.6932-2301.357c5.551-15.3426 17.9995.181 10.656 6.6675l-19.2057 16.9638z" stroke-linecap="round" stroke-linejoin="round" transform="matrix(0.9695904,0.24473345,-0.24473342,0.9695904,6046.4382,4137.9317)"/>
        <path stroke-width=".6052" stroke-dashoffset="1.5616" d="M-6161.121-2322.6657c-.5512-.072-1.103.6938-1.237 1.7175l-1.7802 13.5904c-.024.1812-.032.3577-.028.5263-.1835.3024-.235.601-.109.8323.084.1547.2354.26.4322.3165.1247.1705.2802.2798.4588.3032.249.033.4976-.1066.7082-.3623.045-.026.089-.054.134-.084.1272-.05.2555-.108.3833-.1772l12.055-6.5233c.908-.4914 1.426-1.2806 1.1614-1.7695-.2646-.489-1.2088-.4872-2.1168 0l-8.425 4.559 5.765-7.9097c.608-.8344.736-1.7696.287-2.097-.45-.3276-1.301.081-1.909.9147l-6.425 8.8138 1.398-10.6763c.134-1.0237-.202-1.906-.753-1.9782z" stroke-linecap="round" stroke-linejoin="round" transform="matrix(0.9695904,0.24473345,-0.24473342,0.9695904,6046.4382,4137.9317)"/>
        <path d="M-6174.1725-2289.154l2.1213 2.1213m-2.8284-12.0208l5.1265 6.0104m-.708-12.728l2.651 2.474m2.121 6.364l2.298 2.828" transform="matrix(0.9695904,0.24473345,-0.24473342,0.9695904,6046.4382,4137.9317)"/>
      </g>
      <g fill="none" stroke="#000">
        <path stroke-width=".9592" stroke-dashoffset="1.5616" d="M-6173.6932-2301.357c5.551-15.3426 17.9995.181 10.656 6.6675l-19.2057 16.9638z" stroke-linecap="round" stroke-linejoin="round" transform="matrix(-0.08315868,0.66762317,-0.66762309,-0.08315868,-1419.5182,4354.8729)"/>
        <path stroke-width=".6052" stroke-dashoffset="1.5616" d="M-6161.121-2322.6657c-.5512-.072-1.103.6938-1.237 1.7175l-1.7802 13.5904c-.024.1812-.032.3577-.028.5263-.1835.3024-.235.601-.109.8323.084.1547.2354.26.4322.3165.1247.1705.2802.2798.4588.3032.249.033.4976-.1066.7082-.3623.045-.026.089-.054.134-.084.1272-.05.2555-.108.3833-.1772l12.055-6.5233c.908-.4914 1.426-1.2806 1.1614-1.7695-.2646-.489-1.2088-.4872-2.1168 0l-8.425 4.559 5.765-7.9097c.608-.8344.736-1.7696.287-2.097-.45-.3276-1.301.081-1.909.9147l-6.425 8.8138 1.398-10.6763c.134-1.0237-.202-1.906-.753-1.9782z" stroke-linecap="round" stroke-linejoin="round" transform="matrix(-0.08315868,0.66762317,-0.66762309,-0.08315868,-1419.5182,4354.8729)"/>
        <path d="M-6174.1725-2289.154l2.1213 2.1213m-2.8284-12.0208l5.1265 6.0104m-.708-12.728l2.651 2.474m2.121 6.364l2.298 2.828" transform="matrix(-0.08315868,0.66762317,-0.66762309,-0.08315868,-1419.5182,4354.8729)"/>
      </g>
      <g fill="none" stroke="#000">
        <path stroke-width=".9592" stroke-dashoffset="1.5616" d="M-6173.6932-2301.357c5.551-15.3426 17.9995.181 10.656 6.6675l-19.2057 16.9638z" stroke-linecap="round" stroke-linejoin="round" transform="matrix(-0.16766681,-0.98584378,0.98584366,-0.16766681,1864.8927,-6008.2262)"/>
        <path stroke-width=".6052" stroke-dashoffset="1.5616" d="M-6161.121-2322.6657c-.5512-.072-1.103.6938-1.237 1.7175l-1.7802 13.5904c-.024.1812-.032.3577-.028.5263-.1835.3024-.235.601-.109.8323.084.1547.2354.26.4322.3165.1247.1705.2802.2798.4588.3032.249.033.4976-.1066.7082-.3623.045-.026.089-.054.134-.084.1272-.05.2555-.108.3833-.1772l12.055-6.5233c.908-.4914 1.426-1.2806 1.1614-1.7695-.2646-.489-1.2088-.4872-2.1168 0l-8.425 4.559 5.765-7.9097c.608-.8344.736-1.7696.287-2.097-.45-.3276-1.301.081-1.909.9147l-6.425 8.8138 1.398-10.6763c.134-1.0237-.202-1.906-.753-1.9782z" stroke-linecap="round" stroke-linejoin="round" transform="matrix(-0.16766681,-0.98584378,0.98584366,-0.16766681,1864.8927,-6008.2262)"/>
        <path d="M-6174.1725-2289.154l2.1213 2.1213m-2.8284-12.0208l5.1265 6.0104m-.708-12.728l2.651 2.474m2.121 6.364l2.298 2.828" transform="matrix(-0.16766681,-0.98584378,0.98584366,-0.16766681,1864.8927,-6008.2262)"/>
      </g>
      <g stroke="#000" stroke-width=".9" stroke-dashoffset="1.5616" transform="matrix(0.21017282,0,0,0.21017282,1941.1759,818.1971)" stroke-linecap="round" stroke-linejoin="round">
        <ellipse cx="-6345.646" cy="-2404.5891" rx="21.0364" ry="18.7383"/>
        <path fill="#f2f2f2" d="M-6335.923-2396.634a7.2478 7.6014 0 0 1-6.8115 7.5876 7.2478 7.6014 0 0 1-7.6317-6.674l7.1953-.9136z"/>
      </g>
      <path fill="none" stroke="#000" d="M621.815 362.1907c2.2438.8896 4.6224 1.438 7.029 1.6203 4.2872.325 8.658-.5302 12.5065-2.4468"/>
      <path fill="#333" fill-rule="evenodd" stroke="#000" stroke-width="1.1959" d="M604.9487 461.6572c-3.9924 14.988-5.5944 13.9093-14.8355 17.4204 0 0-37.251 30.7106-52.4685 43.0528-8.036 31.9316-2.0762 53.389-2.602 99.218.7406 13.0503-14.4017 19.0338-26.6118 29.963-4.899 4.3843-2.121 17.202 8.968 16.103 16.468-1.6324 22.529-15.379 36.358-24.4062-.885-18.068 8.235-34.537 4.419-88.5096 33.387-8.0792 91.036-19.6288 114.099-49.2798 0 0 6.462-15.8004 3.169-32.5464.787-7.5214-26.445 10.5616-70.497-11.0152z"/>
      <path fill="#333" fill-rule="evenodd" stroke="#000" stroke-width="1.4167" d="M-4048.1537-1702.6075c-22.3798 7.028-79.8458 11.953-87.588 25.0375-10.1153 17.0955 8.452 47.865 7.2993 93.5824-5.2107 17.6853-18.883 14.9885-26.9806 22.716-9.9084 8.632 2.0585 17.1075 5.57 16.7904 18.5524-.998 27.5386-17.3097 40.434-22.3158 2.2045-44.4156 3.498-.744 5.145-84.827 23.118-6.7203 92.687-5.156 104.8138-3.0264 51.021-5.3317 37.7846-75.1138-48.6935-47.957z" transform="matrix(0.97872443,0,0,1.0489367,4548.1092,2263.0824)"/>
      <rect width="25.0039" height="41.5825" x="641.9429" y="475.7932" fill="#333" ry="12.5019"/>
      <rect width="17.6658" height="4.3485" x="622.3745" y="524.7138" fill="#333" ry="2.1742"/>
      <rect width="17.1222" height="21.6066" x="626.0435" y="506.2326" fill="#333" ry="2.1742"/>
      <ellipse cx="642.894" cy="520.569" fill="#333" ry="5.6395" rx="5.7074"/>
      <ellipse cx="652.3384" cy="514.1144" fill="#333" ry="6.251" rx="6.183"/>
      <ellipse cx="644.2529" cy="513.299" fill="#333" ry="11.8225" rx="9.7841"/>
      <ellipse cx="650.7754" cy="509.3581" fill="#333" ry="12.5019" rx="7.0663"/>
      <ellipse cx="640.04" cy="516.6284" fill="#333" ry="6.4548" rx="5.2997"/>
      <ellipse cx="648.4653" cy="517.7155" fill="#333" ry="5.3677" rx="2.9896"/>
      <path fill="#fff" fill-rule="evenodd" stroke="#000" stroke-width=".9169" d="M673.633 384.7023c-14.0624-9.5842-17.4365 47.235-47.5292 69.6476-17.871 13.31-34.3035 18.233-43.8054 23.182l15.326 1.528s26.0707-5.713 38.1598-12.221c16.9783-9.14 11.543-12.044 21.5577-24.365 11.948-14.7 29.631-50.733 29.631-50.733z"/>
      <ellipse cx="640.0503" cy="479.1564" fill="#333" ry="5.9792" rx="10.1289"/>
      <path fill="#1a1a1a" fill-rule="evenodd" stroke="#000" stroke-width="1.2976" d="M640.928 266.8934c-.9754-.01-1.9514.012-2.9257.059-5.8463.2802-11.6355 1.536-16.914 3.8106-4.6466 2.7843-9.5276 5.8114-12.8334 10.2997l4.368 2.6186c5.936 5.0858 6.954 7.2906 13.327 11.936 3.965 2.8904 7.992 5.6828 11.546 8.8833 3.552 3.199 6.648 6.85 8.43 10.998 1.712 3.986-3.925 8.364-4.194 12.6764-.27 4.3142 5.611 10.6345 4.511 14.895-2.2 8.5243-7.417 15.8068-3.801 24.152 5.066 11.692 5.499 12.919 7.163 19.4476 1.176 4.6137 1.175 9.4625 1.796 14.3017.621 4.8452 1.974 9.8836 5.537 13.755 2.03 2.2067 4.705 3.921 7.68 4.961 2.974 1.04 11.951 2.764 15.119 2.4407 6.344-.6473 6.429-5.4637 9.758-10.3077 3.286-4.7817 4.118-10.5422 3.948-16.0428-.258-8.3314-2.621-16.4624-2.243-24.5748.45-9.68 4.759-18.963 6.999-28.6713 2.102-9.1138 2.315-18.6098.244-27.7444-1.922-8.4746-5.805-16.5872-11.336-23.6864-5.173-7.484-12.508-13.76-21.105-18.0565-6.787-3.391-14.379-5.56-22.156-6.047-.973-.061-1.948-.095-2.923-.102z" overflow="visible" solid-color="#000000" shape-rendering="auto" color="#000" font-family="sans-serif" white-space="normal" style="line-height:normal;text-indent:0;text-align:start;text-decoration-line:none;text-decoration-style:solid;text-decoration-color:#000000;text-transform:none;block-progression:tb;isolation:auto;mix-blend-mode:normal"/>
      <path fill="#f9f9f9" stroke="#000" stroke-width="1.8" stroke-dashoffset="1.08" d="M641.0485 478.788c-.325.045-.6483.1488-.9506.3244-1.21.704-1.616 2.2445-.912 3.4536l47.803 82.107c.704 1.209 3.658 6.5658 4.867 5.8618 1.209-.704.201-7.1943-.503-8.4032l-45.287-77.785 87.61-12.0533-22.74 87.6706c-.352 1.354.956-1.273 2.31-.921 0 0 5.055-2.114 5.406-3.468l21.026-86.309c.351-1.355-.456-2.728-1.81-3.08-.958-.249-1.924.085-2.532.779l-92.069 12.667c-.56-.643-1.398-.952-2.221-.846z" stroke-linecap="round"/>
    </g>

    <path fill="#fff" stroke="#000" stroke-width="1.8" stroke-miterlimit="7.6" stroke-dashoffset="1.5616" d="M266.898 679.4473c-27.0346-2.9368-39.0377 10.9265-45.3425 34.933-3.454 13.152-7.975 19.81 17.5282 36.503 4.4828 2.9343 23.0828 9.479 28.9812 10.541 57.551 10.361 73.054 7.3265 94.605 6.2186 2.889-.149 9.232-1.241 11.852-1.999 7.879.387 20.437-6.809 16.825-16.692 4.127-3.466 7.538-8.171 8.158-17.524 4.522-13.378.919-24.324-5.372-25.612-3.379-12.075-6.942-15.143-14.747-15.676-1.991-1.366-23.711-9.036-27.924-5.742-7.545 5.9-38.791 16.423-46.684 11.491l-14.375-8.982c-4.704-2.939-17.586-6.819-23.508-7.462z" stroke-linecap="round" stroke-linejoin="round"/>
    <path id="cat_tip" fill="#fff" fill-rule="evenodd" stroke="#000" stroke-width="1.8" d="M347.645 577.052c-2.9433 2.2694-7.388 3.604-10.0556 5.402-8.2158 4.853-9.8726 6.3344-12.7557 8.4463-3.918 2.8814-6.6277 8.2882-9.764 12.005-6.3262 7.4975-12.8694 13.9812-15.0602 23.5432-3.2067 10.0695-2.0622 16.468-1.5417 26.573.3663 7.112-9.2732 13.2546-8.604 24.363.8305 13.791 5.8462 18.5836 16.2402 21.369-.431 2.372-3.6184 4.356-5.5917 5.7408-1.9735 1.3846-4.358 2.104-6.7555 2.357-4.795.506-23.5243 3.9675-28.326 3.5295-7.457 1.6482-18.7088-8.204-20.2976-6.2555-2.6366 12.0747 17.412 14.3165 22.5225 14.7072 12.031 2.0367 23.0325-3.3808 34.8633-6.0138 10.6273-2.3652 11.1027-8.8294 17.7808-12.4668 8.382.176 19.027-2.298 22.867-15.572.344-5.385 2.635-20.878-3.2233-25.589-8.6907-6.989-4.0442-13.83-1.5276-23.874.957-5.791-1.715-17.311 2.291-17.336 4.864-.03 18.809-2.508 22.347-5.165 1.381-1.037-5.227-4.621-8.281-4.716-2.858-6.844-2.953-7.517-3.797-10.099-1.607-4.823-3.68-5.154-6.607-8.977 2.682-4.515 3.302-8.129 3.274-11.974z"/>
    <g fill="none" stroke="#000" stroke-width="1.8">
      <path d="M22.0525 559.6375l6.2324 7.0824c1.363 1.549 2.703 3.21 3.254 5.199.55 1.989.243 4.202-.855 5.95-1.098 1.748-2.882 2.97-4.779 3.784-1.897.814-3.927 1.278-5.837 2.063-4.511 1.852-8.204 5.581-10.069 10.087-1.865 4.505-1.892 9.729-.13 14.276 1.679 4.332 4.959 8.023 9.065 10.198"/>
      <g stroke-linecap="round" stroke-linejoin="round" transform="translate(6845.8467,2721.9372)">
        <ellipse cx="-6823.8828" cy="-2166.5977" stroke-dashoffset="1.5616" rx="5.9963" ry="4.3983"/>
        <path stroke-dashoffset="1.08" d="M-6832.187-2106.3836a5.102 5.0388 45.6605 0 0-.038 7.1705 5.102 5.0388 45.6605 0 0 .6117.531c.1142.178.2475.348.401.505l4.099 4.194c1.2805 1.31 3.4322 1.269 4.8244-.091l2.182-2.132c1.393-1.361 1.483-3.511.202-4.821l-4.099-4.195c-.156-.16-.325-.3-.504-.419a5.102 5.0388 45.6605 0 0-.508-.618 5.102 5.0388 45.6605 0 0-7.169-.128z"/>
      </g>
    </g>
    <path fill="#fff" stroke="#000" stroke-width="1.8" stroke-dashoffset="1.5616" d="M85.3002 440.005l54.4686 62.602-38.0667 33.9158-57.821-61.7963z" stroke-linecap="round" stroke-linejoin="round"/>
    <g stroke="#000" stroke-width="2.3023" transform="matrix(-0.65999899,-0.45159872,0.52708583,-0.56547653,-3244.9633,-3923.2022)">
      <rect width="64.485" height="14.485" x="-6984.4072" y="-2303.4302" fill="#fff" stroke-dashoffset="1.5616" ry="2.9822" stroke-linecap="round" stroke-linejoin="round"/>
      <path fill="#fff" stroke-width="2.3346" stroke-dashoffset="1.5616" d="M2713.7058 6164.786c0 7.4957-3.0232 11.3135-11.1146 12.8328-1.514-6.1526-2.2216-9.083-3.3324-13.6247z" transform="matrix(-0.79833846,0.60220902,-0.77138102,-0.63637358,0,0)" stroke-linecap="round" stroke-linejoin="round"/>
      <path fill="#1a1a1a" fill-rule="evenodd" d="M-6916.7456-2300.5232l.04 7.504 6.3806-4.4225z"/>
    </g>
    <rect width="49.4975" height="7.0711" x="366.8555" y="379.3413" fill="#fff" stroke="#000" stroke-width="1.5" stroke-dashoffset="1.5616" ry="3.0718" stroke-linecap="round" stroke-linejoin="round"/>
    <g fill="#fff" stroke="#000" stroke-width="2.6376" stroke-dashoffset="1.5616" transform="matrix(0.68202952,0.02387127,-0.02387126,0.68202952,5117.6779,2210.6513)" stroke-linecap="round" stroke-linejoin="round">
      <path d="M-7053.093-2489.1877h73.8567c.5938 0-.8626.4816-.9283 1.0717l-6 53.8566-56.9283 1.0717-9.071-55.9283c-.163-.571-1.522-.072-.928-.072z"/>
      <ellipse cx="-7015.6646" cy="-2493.6877" ry="11.5" rx="37.5"/>
    </g>
    <g stroke="#000" stroke-width="1.8596" transform="matrix(0.8061128,0.02821423,-0.02821422,0.8061128,6028.8461,2547.5907)">
      <path fill="none" d="M-7097.1646-2530.6877c-5.9024 12.7463-14.8872 4.1052-16.875 0-5.3867-11.125 5.53-22.237 15.875-24.25 18.505-3.601 33.9967 12.815 35.625 30.25 1.2544 13.4308-7.7532 28.6906-17.8662 37.4278"/>
      <ellipse cx="-7504.188" cy="720.8251" fill="#fff" stroke-dashoffset="1.5616" transform="matrix(0.90549877,0.42434889,-0.42434885,0.90549879,0,0)" ry="5.7678" rx="3.75" stroke-linecap="round" stroke-linejoin="round"/>
    </g>
    <g stroke="#000" stroke-width="3.0616" transform="matrix(-0.48964239,-0.01713766,-0.01713765,0.48964239,-3105.0532,1435.8205)">
      <path fill="none" d="M-7097.1646-2530.6877c-5.9024 12.7463-14.8872 4.1052-16.875 0-5.3867-11.125 5.53-22.237 15.875-24.25 18.505-3.601 22.9375 18.0535 24.5658 35.4886 1.2544 13.43 13.201 28.69 3.088 37.427"/>
      <ellipse cx="-7504.188" cy="720.8251" fill="#fff" stroke-dashoffset="1.5616" rx="3.75" ry="5.7678" transform="matrix(0.90549877,0.42434889,-0.42434885,0.90549879,0,0)" stroke-linecap="round" stroke-linejoin="round"/>
    </g>
    <path fill="none" stroke="#000" d="M55.682 474.7495c-.2505-.2217-.434-.5182-.5208-.8414-.0868-.323-.0764-.671.0294-.989.1058-.317.3067-.602.57-.809.2633-.206.588-.333.9215-.36.167-.013.334-.003.5 0 .697.012 1.412-.126 2-.5.587-.372 1.013-.953 1.577-1.358.282-.203.604-.362.948-.406.173-.022.349-.015.517.028.168.043.328.123.459.237.182.159.301.374.442.569.071.098.148.191.241.269.093.078.201.138.318.163.166.035.336-.001.503-.028.084-.013.168-.025.252-.023.085.002.17.016.246.052.108.05.193.139.268.231.075.092.144.19.233.269.13.115.296.183.467.211.171.028.346.019.517-.009.342-.054.672-.176 1.017-.202.166-.012.333-.003.5 0 1.813.029 3.616-.867 4.688-2.329 1.072-1.462 1.385-3.451.812-5.171-.042-.163-.042-.337 0-.5.054-.205.173-.389.315-.548.142-.158.307-.294.47-.431.163-.137.324-.279.455-.446.132-.167.233-.363.26-.574.022-.165-.003-.333 0-.5.009-.346.14-.675.265-.997s.247-.657.236-1.003c-.006-.169-.043-.335-.061-.503-.017-.168-.013-.345.061-.497.049-.101.128-.187.221-.251s.201-.105.311-.127c.221-.043.451-.007.667.057.216.064.424.155.638.225.214.07.44.12.664.097.188-.019.368-.089.533-.181.165-.092.317-.205.468-.318.151-.113.303-.2266.468-.3185.1643-.092.344-.162.532-.182.166-.017.334.005.501.0206.1663.015.337.024.499-.021.232-.064.422-.231.575-.417.152-.186.274-.396.425-.583.3803-.475.927-.794 1.5-1 1.1193-.404 2.38-.404 3.5 0M66.683 485.75c.572-1.2396.7492-2.6578.5-4-.1165-.6275-.324-1.2446-.327-1.8828-.0014-.3192.0503-.6422.185-.9315.1345-.2894.356-.5435.642-.6857.169-.0843.3555-.1277.5333-.192.178-.0643.3547-.1554.4665-.308.11-.1495.1447-.3423.1416-.5276-.003-.186-.0406-.3687-.0615-.5528-.021-.1844-.025-.3755.038-.55.031-.0874.079-.1693.144-.235.065-.066.148-.1155.238-.1355.081-.018.166-.012.249-.008.083.005.167.008.25.008h1c.765 0 1.527.082 2.281.213.377.066.757.128 1.139.118.382-.01.774-.1 1.079-.33.287-.216.474-.536.683-.829.104-.146.217-.289.351-.408.134-.119.292-.216.466-.262.166-.043.34-.038.509-.013.169.026.334.071.501.108.167.038.337.067.508.06.171-.007.343-.053.481-.154.095-.07.17-.163.246-.255.075-.091.154-.182.254-.245.108-.068.236-.1.363-.107.127-.007.255.009.38.032.251.046.505.116.757.075.21-.034.402-.147.564-.287.161-.14.295-.308.429-.475.134-.166.27-.333.434-.47.164-.136.36-.242.572-.268.166-.02.334.01.5 0 .265-.015.513-.129.752-.243.24-.114.484-.232.748-.257.167-.016.334.005.501.021.167.015.337.023.499-.02.174-.046.33-.149.459-.274.129-.125.235-.273.335-.422.1-.15.195-.303.307-.444.112-.141.242-.27.399-.359.279-.158.618-.176.936-.131.317.045.623.149.936.222.312.073.642.113.952.03.155-.041.303-.114.423-.219.121-.106.213-.246.253-.401.041-.163.024-.333.005-.5-.019-.1662-.04-.336-.0055-.5.038-.1834.1425-.3452.246-.5016.103-.1563.21-.316.254-.4983.0594-.247-.002-.5043-.048-.754-.023-.125-.0416-.251-.039-.378.003-.127.027-.2555.087-.3675.056-.1044.141-.191.23-.269.09-.078.185-.149.27-.231.268-.258.425-.628.425-1s-.157-.742-.425-1m-16.001 27c-.685-.695-1.173-1.582-1.394-2.532-.221-.95-.173-1.962.135-2.8873.309-.926.878-1.764 1.625-2.391.747-.628 1.67-1.045 2.635-1.19 1.3205-.198 2.669.105 4 0 2.008-.158 3.915-1.302 5-3 1.071-.011 2.136-.366 3-1 .674-.494 1.237-1.158 2-1.5.3144-.1402.657-.222 1.0013-.226.345-.004.691.071.999.226.0837.0428.1667.091.259.1048.0467.007.095.004.138-.0133.044-.017.082-.049.103-.091.0157-.031.02-.067.015-.101-.0053-.034-.021-.0666-.0433-.093-.022-.0264-.052-.0465-.084-.059-.032-.012-.067-.017-.102-.014-.069.005-.134.039-.183.0883-.049.049-.082.112-.102.178-.035.1147-.0312.24.006.354.037.114.107.2163.198.295.18.158.435.216.673.184.2375-.0316.4585-.147.644-.299s.338-.34.479-.534c.07-.0966.138-.1953.218-.284.08-.0886.173-.1677.282-.216.157-.0694.343-.0694.5 0l1-1m-19.5 22c1.233-.7345 2.405-1.5717 3.5-2.5.72-.6105 1.409-1.263 2-2 .376-.4694.711-.972 1-1.5.857-.4305 1.569-1.143 2-2 .1935-.385.3316-.798.549-1.17.109-.186.238-.362.396-.508.158-.147.347-.263.554-.322.349-.0983.72-.0293 1.081-.0377.181-.004.364-.029.53-.1015.166-.072.314-.196.389-.361.072-.156.072-.344 0-.5.294-.553.877-.942 1.5-1 .335-.031.67.027 1.004.063.334.037.681.051.9968-.063.176-.063.335-.164.495-.26.16-.097.3244-.191.505-.239.242-.065.498-.047.748-.029s.501.0284.751.0284h3.5c.167 0 .334.004.5007.0107.1664.007.3343.014.4994-.01.262-.038.505-.155.745-.266.241-.11.49-.218.7547-.233.167-.01.334.017.5 0 .304-.03.576-.202.809-.399.233-.1976.441-.425.691-.6006.2488-.175.531-.293.799-.435.268-.142.531-.3145.701-.5655.156-.23.224-.5098.249-.7865.025-.276.011-.555.0194-.833.009-.277.042-.56.154-.814.0568-.127.133-.246.23-.345.0978-.099.2168-.177.348-.221.139-.046.29-.053.432-.02.142.0334.274.107.377.21.103.103.177.2357.211.3777.0338.142.027.293-.02.4315m-15.501 24c-.334.314-.791.494-1.25.494-.458 0-.915-.18-1.25-.494-.261-.2447-.446-.5646-.551-.9065-.1054-.3415-.132-.705-.102-1.0614.061-.713.3445-1.3862.6536-2.032.522-1.0893 1.1382-2.1532 2-3 .337-.331.71-.628 1-1 .259-.332.4432-.714.6603-1.075.217-.3603.478-.71.8392-.925.411-.244.916-.29 1.39-.228.474.062.929.224 1.383.373.4547.149.92.2874 1.3986.299.239.006.48-.021.7085-.0925.228-.071.444-.188.619-.351.175-.1627.305-.366.453-.553.148-.187.323-.365.547-.447.158-.058.33-.064.498-.052.168.012.334.041.502.051.389.024.785-.057 1.134-.232.349-.175.651-.443.866-.769"/>
  </g>
</svg>
