<svg xmlns="http://www.w3.org/2000/svg" viewBox="0 0 41 35.7" shape-rendering="auto">

  <g fill="none" stroke="#000" ><defs>
    <style>
      .print {
        <!-- display: none; -->
        transform-origin: 50% 50%;
      }
    </style>
  </defs>
    <path class="print" stroke-width="2" d="M14 16c3.3 0 6-3.4 6-7.7C20 4 17.2.5 14 .5 11 .5 8.4 4 8.4 8.3S11 16 14 16zM31.3 23.6l-.3-.4c-1.3-2.8-4.8-6-10.6-6h-.2c-5.7 0-9.2 3-10.6 6 0 0-.2 0-.3.2 0 .2-.3.3-.4.5-1.3 1.8-2 4-1.8 5.8 0 2 1 3.7 2.4 4.6.6.4 1.3.6 2 .6 1.3 0 2.6-.8 4-1.7l3-1.6h3.2c1 .5 2 1 3 1.7 1.2 1 2.5 1.8 4 1.8.5 0 1-.2 1.6-.5 3-1.7 3.6-6.4 1.3-10.5 0-.2-.3-.4-.4-.6zM26.4 16c3.2 0 5.8-3.4 5.8-7.7C32.2 4 29.6.5 26.4.5c-3.2 0-5.8 3.5-5.8 7.8s2.6 7.8 5.8 7.8zM36 12c-2.6 0-4.6 2.7-4.6 6 0 3.5 2 6.2 4.6 6.2 2.5 0 4.5-2.7 4.5-6 0-3.5-2-6-4.5-6zM9.6 18c0-3.3-2-6-4.5-6S.6 14.8.6 18c0 3.5 2 6.2 4.6 6.2 2.6 0 4.6-2.7 4.6-6z"/>

  </g>
</svg>
